<?xml version="1.0" encoding="utf-8" standalone="no"?>
<!DOCTYPE svg PUBLIC "-//W3C//DTD SVG 1.1//EN" "http://www.w3.org/Graphics/SVG/1.1/DTD/svg11.dtd">
<svg version="1.1" width="2384pt" height="3370pt" viewBox="0 0 2383.92 3370.32" xmlns="http://www.w3.org/2000/svg">
  <defs />
  <path d="M900.79694,1801.7544 L899.1577,1801.8905" stroke="#000000" stroke-width="0.24" stroke-linecap="round" stroke-linejoin="round" fill="none" />
  <path d="M898.5222,1798.6982 L897.9104,1791.3273" stroke="#000000" stroke-width="0.24" stroke-linecap="round" stroke-linejoin="round" fill="none" />
  <path d="M1391.8011,1824.1055 L1394.3993,1825.7672 L1397.1938,1827.1987 L1400.1372,1828.3536 L1403.6545,1828.3644 L1407.1566,1828.0393 L1410.741,1827.3528 L1414.2417,1826.3208 L1417.7372,1825.8104 L1421.1652,1824.9565 L1424.3125,1823.8319 L1427.334,1822.4034 L1429.6968,1819.9261 L1431.7814,1817.2753 L1433.5591,1814.5309 L1435.0874,1811.6401 L1435.2516,1811.451 L1437.1432,1809.0092 L1438.8029,1806.4039 L1440.2323,1803.6019 L1441.3851,1800.6511 L1441.396,1797.1339 L1441.0709,1793.6318 L1440.3843,1790.0474 L1439.3523,1786.5468 L1438.8419,1783.0511 L1437.988,1779.6233 L1436.8636,1776.476 L1435.4349,1773.4543 L1432.9576,1771.0916 L1430.3069,1769.0071 L1427.5624,1767.2294 L1424.6716,1765.7009 L1424.4827,1765.5367 L1422.0408,1763.6451 L1419.4354,1761.9856 L1416.6335,1760.5562 L1413.6826,1759.4032 L1410.1655,1759.3925 L1406.6633,1759.7175 L1403.0789,1760.404 L1399.5782,1761.4362 L1396.0826,1761.9464 L1392.6548,1762.8003 L1389.5074,1763.9249 L1386.486,1765.3535 L1384.1233,1767.8307 L1382.0386,1770.4816 L1380.2609,1773.226 L1378.7327,1776.1167 L1378.5684,1776.3058 L1376.6766,1778.7477 L1375.0171,1781.353 L1373.5876,1784.1549 L1372.4348,1787.1057 L1372.424,1790.6229 L1372.749,1794.125 L1373.4357,1797.7095 L1374.4677,1801.2102 L1374.978,1804.7057 L1375.8319,1808.1335 L1376.9564,1811.2809 L1378.3849,1814.3025 L1380.8644,1816.6725 L1383.5171,1818.7644 L1386.2634,1820.5491 L1389.1564,1822.0847 L1389.3668,1822.2118 z" stroke="#000000" stroke-width="0.24" stroke-linecap="round" stroke-linejoin="round" fill="none" />
  <path d="M1220.3511,1824.9227 L1223.4117,1825.8552 L1226.7396,1826.5854 L1230.2404,1827.054 L1233.5815,1828.0022 L1237.0005,1828.6136 L1240.4719,1828.8767 L1243.952,1828.782 L1247.3298,1827.419 L1250.5583,1825.7325 L1253.6409,1823.7233 L1256.5204,1821.4325 L1259.4435,1819.707 L1262.1051,1817.7842 L1264.4447,1815.7544 L1266.599,1813.529 L1266.7017,1813.3015 L1267.8707,1810.3318 L1268.8048,1807.28 L1269.5367,1803.961 L1270.0067,1800.4694 L1270.955,1797.128 L1271.5665,1793.7092 L1271.8295,1790.2378 L1271.7347,1786.7578 L1270.3718,1783.3799 L1268.6853,1780.1514 L1266.676,1777.0688 L1264.3853,1774.1893 L1262.6598,1771.2662 L1260.7369,1768.6045 L1258.7072,1766.265 L1256.4819,1764.1107 L1256.2544,1764.0078 L1253.2845,1762.839 L1250.2329,1761.9049 L1246.914,1761.173 L1243.4222,1760.7029 L1240.0809,1759.7546 L1236.662,1759.1432 L1233.1907,1758.8802 L1229.7106,1758.9749 L1226.3328,1760.3379 L1223.1042,1762.0243 L1220.0216,1764.0336 L1217.1422,1766.3245 L1214.2191,1768.0499 L1211.5573,1769.9727 L1209.2179,1772.0024 L1207.0636,1774.2278 L1206.9607,1774.4553 L1205.7917,1777.4252 L1204.8578,1780.4768 L1204.1259,1783.7958 L1203.6558,1787.2875 L1202.7075,1790.6288 L1202.096,1794.0477 L1201.8329,1797.519 L1201.9277,1800.9991 L1203.2906,1804.377 L1204.977,1807.6055 L1206.9863,1810.6881 L1209.2771,1813.5675 L1211.0011,1816.4818 L1212.9222,1819.1349 L1214.9506,1821.4656 L1217.1742,1823.6108 L1217.3721,1823.7555 z" stroke="#000000" stroke-width="0.24" stroke-linecap="round" stroke-linejoin="round" fill="none" />
  <path d="M1046.9624,1827.4329 L1050.8286,1827.8489 L1054.97,1828.0784 L1059.2786,1828.0759 L1062.6405,1829.9039 L1066.1389,1831.4547 L1069.64,1832.6702 L1073.2318,1833.5841 L1076.7656,1831.3209 L1080.1261,1828.8076 L1083.4244,1825.9519 L1086.5155,1822.8732 L1090.1262,1821.8267 L1093.5215,1820.5835 L1096.619,1819.2179 L1099.6292,1817.669 L1099.692,1817.3846 L1100.2974,1813.5748 L1100.7163,1809.7401 L1100.9491,1805.63 L1100.95,1801.3523 L1102.778,1797.9905 L1104.3289,1794.4921 L1105.5442,1790.9908 L1106.4581,1787.3992 L1104.195,1783.8652 L1101.6816,1780.5048 L1098.826,1777.2064 L1095.7472,1774.1154 L1094.7008,1770.5048 L1093.4576,1767.1095 L1092.092,1764.012 L1090.5431,1761.0018 L1090.2587,1760.9388 L1086.449,1760.3336 L1082.6143,1759.9146 L1078.5042,1759.6818 L1074.2264,1759.6809 L1070.8645,1757.8529 L1067.3661,1756.3021 L1063.8649,1755.0867 L1060.2731,1754.1729 L1056.7394,1756.4359 L1053.3789,1758.9492 L1050.0806,1761.8049 L1046.9895,1764.8837 L1043.3788,1765.9302 L1039.9836,1767.1733 L1036.8859,1768.539 L1033.8759,1770.0879 L1033.813,1770.3723 L1033.2078,1774.1821 L1032.7887,1778.0168 L1032.5558,1782.1268 L1032.555,1786.4045 L1030.727,1789.7665 L1029.1761,1793.2649 L1027.9608,1796.7661 L1027.0469,1800.3578 L1029.3099,1803.8916 L1031.8232,1807.2521 L1034.6791,1810.5504 L1037.7578,1813.6415 L1038.801,1817.2219 L1040.0409,1820.5864 L1041.4031,1823.6532 L1042.949,1826.6318 L1043.1206,1826.8313 z" stroke="#000000" stroke-width="0.24" stroke-linecap="round" stroke-linejoin="round" fill="none" />
  <path d="M871.7377,1831.2418 L876.6453,1831.3328 L881.7806,1831.2599 L887.05316,1830.9932 L890.6572,1833.7103 L894.39966,1836.233 L898.109,1838.4495 L901.93463,1840.4586 L905.83795,1837.3037 L909.5916,1833.9722 L913.3192,1830.3434 L916.8795,1826.55 L921.331,1826.0972 L925.6289,1825.4729 L929.70404,1824.7219 L933.7522,1823.8374 L933.79193,1823.4816 L934.02875,1818.6384 L934.12256,1813.7905 L934.0525,1808.7137 L933.7885,1803.499 L936.5055,1799.895 L939.02844,1796.1525 L941.2449,1792.4431 L943.2539,1788.6176 L940.099,1784.7144 L936.7675,1780.9606 L933.13855,1777.2329 L929.3453,1773.6726 L928.8925,1769.2212 L928.26825,1764.9233 L927.5172,1760.8483 L926.6326,1756.8 L926.2769,1756.7601 L921.4338,1756.5234 L916.5857,1756.4297 L911.50903,1756.4998 L906.2943,1756.7637 L902.69025,1754.0466 L898.9478,1751.5238 L895.2385,1749.3074 L891.41284,1747.2983 L887.50964,1750.4532 L883.7559,1753.7847 L880.0282,1757.4136 L876.468,1761.2069 L872.01654,1761.6597 L867.71857,1762.2839 L863.6435,1763.0349 L859.59534,1763.9196 L859.5555,1764.2753 L859.3187,1769.1184 L859.22504,1773.9664 L859.2951,1779.0431 L859.559,1784.2578 L856.842,1787.8618 L854.31915,1791.6044 L852.1027,1795.3137 L850.09357,1799.1393 L853.24854,1803.0425 L856.58,1806.7963 L860.20886,1810.524 L864.0022,1814.0842 L864.4522,1818.479 L865.07367,1822.7195 L865.8218,1826.7361 L866.7037,1830.7255 L866.8347,1831.0082 z" stroke="#000000" stroke-width="0.24" stroke-linecap="round" stroke-linejoin="round" fill="none" />
  <path d="M701.0374,1836.1871 L706.6567,1836.0085 L707.2547,1835.9829 L713.5642,1835.63 L721.84125,1842.8364 L730.2032,1849.3306 L738.96985,1841.1451 L747.48895,1832.3372 L752.9727,1832.3334 L754.24634,1832.3131 L758.3687,1832.2019 L768.9088,1831.6399 L768.9353,1831.1985 L768.9015,1819.2561 L768.724,1813.7186 L768.69836,1813.1294 L768.3466,1806.9093 L775.5529,1798.6322 L782.0471,1790.2703 L773.86163,1781.5035 L765.0537,1772.9845 L765.04987,1767.5007 L765.0298,1766.227 L764.9186,1762.1047 L764.3565,1751.5647 L763.91504,1751.5381 L751.97266,1751.572 L746.4353,1751.7495 L745.8459,1751.7751 L739.62585,1752.1268 L731.3488,1744.9204 L722.9869,1738.4263 L714.2202,1746.6118 L705.70105,1755.4198 L700.21735,1755.4236 L698.94366,1755.4437 L694.82135,1755.5549 L684.28125,1756.117 L684.2547,1756.5585 L684.2886,1768.5007 L684.4661,1774.0382 L684.49164,1774.6274 L684.8434,1780.8475 L677.63715,1789.1246 L671.1429,1797.4866 L679.32837,1806.2533 L688.1363,1814.7725 L688.13904,1820.1683 L688.15894,1821.4213 L688.2693,1825.4757 L688.829,1835.8351 L688.9109,1836.2234 z" stroke="#000000" stroke-width="0.24" stroke-linecap="round" stroke-linejoin="round" fill="none" />
  <path d="M524.3466,1842.6067 L526.4673,1842.5557 L531.6481,1842.4012 L538.99146,1842.1052 L548.7377,1851.4178 L558.4682,1860.3674 L568.5769,1850.4243 L578.5551,1840.2043 L585.31006,1840.3843 L590.9301,1840.4805 L592.0333,1840.494 L605.4068,1840.5349 L605.4217,1839.99 L605.24457,1825.7955 L605.1936,1823.7119 L605.03906,1818.6208 L604.74304,1811.4033 L614.0558,1801.657 L623.00525,1791.9265 L613.06226,1781.8177 L602.8423,1771.8396 L603.02203,1765.0847 L603.1183,1759.4646 L603.1319,1758.3615 L603.1728,1744.9878 L602.6278,1744.9731 L588.4335,1745.1501 L586.3498,1745.2012 L581.2587,1745.3557 L574.0411,1745.6516 L564.2949,1736.339 L554.56433,1727.3894 L544.4556,1737.3325 L534.4774,1747.5525 L527.7225,1747.3727 L522.1025,1747.2764 L520.99927,1747.2628 L507.6258,1747.2219 L507.6109,1747.767 L507.78802,1761.9613 L507.839,1764.045 L507.99353,1769.136 L508.28946,1776.3535 L498.97675,1786.0999 L490.02728,1795.8303 L499.97028,1805.9391 L510.1903,1815.9172 L510.01056,1822.5488 L509.9142,1828.0651 L509.9007,1829.148 L509.86032,1842.2706 L509.89606,1842.7838 z" stroke="#000000" stroke-width="0.24" stroke-linecap="round" stroke-linejoin="round" fill="none" />
  <path d="M362.94135,1850.5713 L386.40564,1874.0543 L409.90732,1850.5713 L443.13046,1850.5713 L443.13046,1849.9027 L443.13046,1817.3746 L466.61343,1793.9104 L443.13046,1770.4087 L443.13046,1737.1855 L442.46176,1737.1855 L409.93375,1737.1855 L386.46945,1713.7025 L362.96777,1737.1855 L329.74463,1737.1855 L329.74463,1737.8541 L329.74463,1770.3823 L306.2617,1793.8464 L329.74463,1817.3481 L329.74463,1849.9153 L329.74463,1850.5713 z" stroke="#000000" stroke-width="0.24" stroke-linecap="round" stroke-linejoin="round" fill="none" />
  <path d="M1918.9867,1795.5408 L1919.7877,1795.2114 L1920.5261,1794.9435 L1921.2021,1794.7369 L1921.8157,1794.5919 L1922.3667,1794.5083 L1922.8551,1794.4861 L1923.2812,1794.5253 L1923.6604,1794.61 L1924.0083,1794.7244 L1924.3251,1794.8685 L1924.6102,1795.0421 L1924.8645,1795.2456 L1925.0874,1795.4788 L1925.2792,1795.7416 L1925.4396,1796.034 L1925.5627,1796.344 L1925.6432,1796.6592 L1925.6805,1796.9796 L1925.675,1797.3054 L1925.6266,1797.6365 L1925.5353,1797.9728 L1925.401,1798.3143 L1925.2236,1798.6613 L1924.9817,1799.0153 L1924.653,1799.3779 L1924.2375,1799.7496 L1923.7352,1800.1301 L1923.1465,1800.5195 L1922.4711,1800.9177 L1921.709,1801.3247 L1920.8601,1801.7406 L1919.9944,1802.1323 L1919.1918,1802.4625 L1918.4519,1802.7311 L1917.775,1802.938 L1917.1613,1803.0834 L1916.6104,1803.1669 L1916.1223,1803.189 L1915.6973,1803.1492 L1915.3192,1803.0636 L1914.9717,1802.9479 L1914.6552,1802.8019 L1914.3695,1802.6256 L1914.1145,1802.4191 L1913.8904,1802.1824 L1913.697,1801.9154 L1913.5345,1801.6183 L1913.4097,1801.311 L1913.3247,1801.0039 L1913.2795,1800.6971 L1913.274,1800.3904 L1913.3086,1800.0837 L1913.3828,1799.7775 L1913.4968,1799.4712 L1913.6508,1799.1652 L1913.9163,1798.7761 L1914.2655,1798.3827 L1914.6987,1797.985 L1915.216,1797.5829 L1915.817,1797.1765 L1916.502,1796.7659 L1917.2709,1796.351 L1918.1234,1795.9315 z" stroke="#000000" stroke-width="0.24" stroke-linecap="round" stroke-linejoin="round" fill="none" />
  <path d="M1916.0493,1794.7083 L1915.503,1795.0162 L1914.996,1795.3259 L1914.5284,1795.6375 L1914.0999,1795.9507 L1913.7107,1796.2657 L1913.3606,1796.5825 L1913.0454,1796.9028 L1912.7601,1797.2288 L1912.5049,1797.5602 L1912.2797,1797.8972 L1912.0846,1798.2397 L1911.9194,1798.5878 L1911.7845,1798.9413 L1911.6794,1799.3004 L1911.6068,1799.6646 L1911.5688,1800.0328 L1911.5653,1800.4055 L1911.5964,1800.7825 L1911.6622,1801.164 L1911.7625,1801.5496 L1911.8973,1801.9396 L1912.0669,1802.3339 L1912.3635,1802.887 L1912.7018,1803.3763 L1913.082,1803.802 L1913.5044,1804.1642 L1913.9646,1804.4629 L1914.4587,1804.6986 L1914.9869,1804.8716 L1915.5491,1804.9816 L1916.145,1805.0331 L1916.7745,1805.031 L1917.438,1804.9752 L1918.135,1804.8655 L1918.8948,1804.6825 L1919.7463,1804.4062 L1920.6893,1804.037 L1921.724,1803.5745 L1922.9257,1802.9683 L1923.4686,1802.6622 L1923.9731,1802.3544 L1924.4391,1802.0447 L1924.8665,1801.7329 L1925.2551,1801.4194 L1925.6053,1801.104 L1925.9213,1800.7847 L1926.2072,1800.4597 L1926.4631,1800.1289 L1926.6893,1799.7924 L1926.8853,1799.4501 L1927.0514,1799.102 L1927.1876,1798.7482 L1927.2937,1798.3887 L1927.3674,1798.0239 L1927.4064,1797.6547 L1927.4104,1797.2806 L1927.3794,1796.9022 L1927.3135,1796.5193 L1927.2128,1796.1317 L1927.0771,1795.7395 L1926.9067,1795.3429 L1926.6422,1794.8425 L1926.3441,1794.3928 L1926.012,1793.9933 L1925.6462,1793.6442 L1925.2465,1793.3455 L1924.8131,1793.0972 L1924.3458,1792.8993 L1923.8448,1792.7516 L1923.5271,1792.6887 L1923.1968,1792.6451 L1922.4989,1792.6173 L1921.7509,1792.6678 L1920.9529,1792.7968 L1920.1045,1793.0043 L1919.2063,1793.2902 L1918.258,1793.6547 L1917.2593,1794.0977 z" stroke="#000000" stroke-width="0.24" stroke-linecap="round" stroke-linejoin="round" fill="none" />
  <path d="M1907.14,1791.8757 L1907.3167,1791.6376 L1907.4856,1791.3783" stroke="#000000" stroke-width="0.24" stroke-linecap="round" stroke-linejoin="round" fill="none" />
  <path d="M1907.14,1791.8757 L1907.6818,1793.0256 L1922.2737,1786.1512 L1921.433,1784.367 L1910.0629,1789.7235 L1910.2065,1789.2316 L1910.3265,1788.6893 L1910.423,1788.0968 L1910.4957,1787.4542 L1910.544,1786.809 L1910.566,1786.2084 L1910.5621,1785.6525 L1910.5327,1785.1415 L1908.8079,1785.954 L1908.7788,1786.8534" stroke="#000000" stroke-width="0.24" stroke-linecap="round" stroke-linejoin="round" fill="none" />
  <path d="M1907.4856,1791.3783 L1907.8,1790.7957 L1908.0835,1790.1276 L1908.3357,1789.3743" stroke="#000000" stroke-width="0.24" stroke-linecap="round" stroke-linejoin="round" fill="none" />
  <path d="M1561.4816,1825.7 L1564.0187,1828.267 L1566.6608,1830.5756 L1569.399,1832.6185 L1573.2605,1831.569 L1577.0366,1830.245 L1580.8667,1828.5751 L1584.561,1826.623 L1588.5426,1826.8357 L1592.5295,1826.776 L1596.1357,1826.4828 L1599.7163,1825.963 L1601.6278,1822.6259 L1603.2855,1819.1569 L1604.6854,1815.6128 L1605.8542,1811.9858 L1606.1025,1811.8091 L1608.8306,1809.4362 L1611.3906,1806.8829 L1613.6926,1804.2238 L1615.7288,1801.4681 L1614.6792,1797.6067 L1613.3553,1793.8306 L1611.6854,1790.0004 L1609.7333,1786.3062 L1609.946,1782.3245 L1609.8864,1778.3376 L1609.593,1774.7314 L1609.0732,1771.1508 L1605.7362,1769.2394 L1602.2672,1767.5815 L1598.7231,1766.1816 L1595.0962,1765.0128 L1594.9194,1764.7646 L1592.5465,1762.0365 L1589.9932,1759.4766 L1587.334,1757.1747 L1584.5784,1755.1383 L1580.717,1756.1879 L1576.9409,1757.5118 L1573.1107,1759.1818 L1569.4164,1761.1338 L1565.4348,1760.9211 L1561.448,1760.9808 L1557.8418,1761.274 L1554.2611,1761.794 L1552.3495,1765.131 L1550.6919,1768.6 L1549.2919,1772.144 L1548.1232,1775.771 L1547.875,1775.9478 L1545.1469,1778.3207 L1542.5868,1780.8739 L1540.2849,1783.5332 L1538.2485,1786.2887 L1539.2981,1790.1501 L1540.6221,1793.9263 L1542.292,1797.7565 L1544.2441,1801.4508 L1544.0314,1805.4324 L1544.0911,1809.4192 L1544.3844,1813.0254 L1544.9043,1816.6061 L1548.2479,1818.5347 L1551.7234,1820.2091 L1555.2734,1821.6251 L1558.9071,1822.8097 L1559.1252,1822.9661 z" stroke="#000000" stroke-width="0.24" stroke-linecap="round" stroke-linejoin="round" fill="none" />
  <path d="M1908.5428,1788.5636 L1908.6906,1787.7233 L1908.7788,1786.8534" stroke="#000000" stroke-width="0.24" stroke-linecap="round" stroke-linejoin="round" fill="none" />
  <path d="M1907.14,1791.8757 L1907.4856,1791.3783" stroke="#000000" stroke-width="0.24" stroke-linecap="round" stroke-linejoin="round" fill="none" />
  <path d="M1749.061,1789.8358 L1749.4426,1789.7368 L1749.8134,1789.6721 L1750.1737,1789.6416 L1750.5238,1789.645 L1750.863,1789.683 L1751.1919,1789.7549 L1751.5104,1789.861 L1751.811,1789.995 L1752.0864,1790.1509 L1752.3368,1790.3285 L1752.5621,1790.5278 L1752.7623,1790.749 L1752.9375,1790.9918 L1753.0875,1791.2563 L1753.2125,1791.5428 L1753.3112,1791.8512 L1753.3749,1792.1616 L1753.4032,1792.474 L1753.3964,1792.7883 L1753.3546,1793.1045 L1753.2776,1793.4226 L1753.1654,1793.7428 L1753.0182,1794.0648 L1752.8387,1794.377 L1752.6296,1794.6678 L1752.3914,1794.9371 L1752.1238,1795.185 L1751.8269,1795.4114 L1751.5005,1795.6162 L1751.1449,1795.7997 L1750.7596,1795.9614 L1750.4044,1796.0804 L1750.0554,1796.166 L1749.7133,1796.2181 L1749.3776,1796.2368 L1749.0483,1796.2222 L1748.7258,1796.174 L1748.4098,1796.0923 L1748.1005,1795.9773 L1747.8062,1795.834 L1747.5348,1795.6674 L1747.2869,1795.4775 L1747.062,1795.2643 L1746.8605,1795.028 L1746.6824,1794.7684 L1746.5273,1794.4855 L1746.3955,1794.1794 L1746.291,1793.861 L1746.2201,1793.5461 L1746.1825,1793.235 L1746.1781,1792.9275 L1746.2074,1792.6237 L1746.2703,1792.3234 L1746.3662,1792.0269 L1746.4957,1791.7339 L1746.6576,1791.4518 L1746.851,1791.187 L1747.0754,1790.94 L1747.3315,1790.7106 L1747.6188,1790.4988 L1747.9376,1790.3044 L1748.2877,1790.1279 L1748.6692,1789.969 z" stroke="#000000" stroke-width="0.24" stroke-linecap="round" stroke-linejoin="round" fill="none" />
  <path d="M1744.388,1798.1956 L1743.9891,1798.2559 L1743.6158,1798.2844 L1743.2362,1798.2793 L1742.8624,1798.2317 L1742.5018,1798.1323 L1742.1619,1797.9729 L1741.8547,1797.7589 L1741.5851,1797.4952 L1741.3425,1797.1655 L1741.1716,1796.8501 L1741.0256,1796.4861 L1740.9194,1796.1095 L1740.8606,1795.7391 L1740.849,1795.3702 L1740.8889,1794.992 L1740.9769,1794.6201 L1741.1051,1794.2631 L1741.2736,1793.9218 L1741.4784,1793.6007 L1741.7069,1793.312 L1741.9769,1793.0267 L1742.2577,1792.7683 L1742.5487,1792.5283 L1742.8539,1792.2982 L1743.1693,1792.0784 L1743.4901,1791.8722 L1743.8181,1791.679 L1744.1532,1791.4987 L1744.487,1791.335 L1744.8434,1791.177 L1745.1849,1791.0405 L1745.5577,1790.9113 L1745.2522,1791.3722 L1745.0072,1791.8679 L1744.8231,1792.3984 L1744.6998,1792.9639 L1744.6448,1793.5437 L1744.6658,1794.1174 L1744.7631,1794.685 L1744.9363,1795.2467 L1745.1304,1795.6962 L1745.36,1796.1116 L1745.6252,1796.4932 L1745.9257,1796.8407 L1746.262,1797.1544 L1746.6335,1797.4342 L1747.0406,1797.68 L1747.4833,1797.892 L1747.9493,1798.0616 L1748.4272,1798.1808 L1748.9165,1798.2494 L1749.4176,1798.2673 L1749.9303,1798.235 L1750.4547,1798.152 L1750.9907,1798.0184 L1751.5383,1797.8345 L1752.088,1797.6025 L1752.5936,1797.339 L1753.0554,1797.0441 L1753.4736,1796.7173 L1753.848,1796.3593 L1754.1785,1795.9694 L1754.4653,1795.5481 L1754.7083,1795.0951 L1754.9034,1794.6239 L1755.0472,1794.148 L1755.139,1793.6671 L1755.1796,1793.1814 L1755.1683,1792.691 L1755.1055,1792.1958 L1754.991,1791.6957 L1754.8251,1791.1907 L1754.6755,1790.8329 L1754.5044,1790.4922 L1754.3115,1790.1687 L1754.0972,1789.8624 L1753.8608,1789.5732 L1753.603,1789.3013 L1753.3234,1789.0465 L1753.0221,1788.809 L1752.7029,1788.593 L1752.3696,1788.4032 L1752.0223,1788.2396 L1751.661,1788.1023 L1751.2855,1787.9912 L1750.8959,1787.9062 L1750.4923,1787.8474 L1750.0746,1787.8148 L1749.6333,1787.8129 L1749.1583,1787.8462 L1748.6501,1787.9144 L1748.1086,1788.018 L1747.5336,1788.1567 L1746.9252,1788.3304 L1746.2836,1788.5393 L1745.6083,1788.7834 L1744.9104,1789.0586 L1744.2563,1789.3394 L1743.6465,1789.6259 L1743.0807,1789.918 L1742.559,1790.2158 L1742.0813,1790.5193 L1741.6477,1790.8285 L1741.258,1791.1432 L1740.907,1791.4656 L1740.5885,1791.7975 L1740.3025,1792.1385 L1740.0493,1792.4894 L1739.8289,1792.8494 L1739.6411,1793.2189 L1739.4858,1793.5978 L1739.3633,1793.9862 L1739.2738,1794.3806 L1739.2168,1794.7778 L1739.1929,1795.1777 L1739.2019,1795.5806 L1739.2438,1795.986 L1739.3186,1796.3942 L1739.4261,1796.8052 L1739.5667,1797.2189 L1739.7449,1797.6437 L1739.9458,1798.0369 L1740.1702,1798.3982 L1740.4171,1798.7278 L1740.687,1799.0258 L1740.98,1799.2919 L1741.296,1799.5262 L1741.6346,1799.7289 L1741.9923,1799.8969 L1742.3639,1800.0278 L1742.75,1800.1215 L1743.1505,1800.1777 L1743.565,1800.1969 L1743.9939,1800.1787 L1744.4371,1800.1234 L1744.8945,1800.0308 z" stroke="#000000" stroke-width="0.24" stroke-linecap="round" stroke-linejoin="round" fill="none" />
  <path d="M1581.4506,1795.2122 L1581.1873,1795.2595 L1580.9292,1795.281 L1580.6768,1795.2767 L1580.4299,1795.2466 L1580.1885,1795.1908 L1579.9525,1795.109 L1579.7219,1795.0015 L1579.5028,1794.8712 L1579.3011,1794.721 L1579.117,1794.5508 L1578.9501,1794.3608 L1578.8008,1794.1509 L1578.6687,1793.9213 L1578.5541,1793.6716 L1578.4568,1793.4021 L1578.3834,1793.1332 L1578.3354,1792.8699 L1578.3125,1792.6118 L1578.315,1792.3594 L1578.3425,1792.1123 L1578.3955,1791.8708 L1578.4736,1791.6348 L1578.5771,1791.4042 L1578.7015,1791.1858 L1578.8423,1790.9858 L1578.9996,1790.8047 L1579.1733,1790.6421 L1579.3638,1790.4983 L1579.5707,1790.373 L1579.7941,1790.2665 L1580.0338,1790.1786 L1580.2909,1790.1096 L1580.5446,1790.0662 L1580.795,1790.0483 L1581.0425,1790.056 L1581.2866,1790.0896 L1581.5276,1790.1486 L1581.7653,1790.2333 L1581.9999,1790.3435 L1582.2234,1790.4755 L1582.4286,1790.6255 L1582.6151,1790.7933 L1582.783,1790.9791 L1582.9323,1791.1829 L1583.0631,1791.4044 L1583.1753,1791.6439 L1583.269,1791.9014 L1583.3417,1792.1681 L1583.389,1792.4302 L1583.4114,1792.6876 L1583.4083,1792.9406 L1583.3804,1793.1888 L1583.3271,1793.4326 L1583.2487,1793.6716 L1583.1451,1793.9061 L1583.0212,1794.1285 L1582.8818,1794.3314 L1582.7269,1794.5148 L1582.5565,1794.6787 L1582.3705,1794.8231 L1582.169,1794.9479 L1581.952,1795.0532 L1581.7195,1795.139 z" stroke="#000000" stroke-width="0.24" stroke-linecap="round" stroke-linejoin="round" fill="none" />
  <path d="M1574.4324,1798.0869 L1574.0172,1798.1396 L1573.5936,1798.1427 L1573.1615,1798.096 L1572.739,1797.9945 L1572.3442,1797.8333 L1571.9772,1797.6122 L1571.6378,1797.3313 L1571.3359,1797.0052 L1571.0812,1796.6484 L1570.8733,1796.2609 L1570.7124,1795.8428 L1570.6216,1795.5089 L1570.5626,1795.1812 L1570.5353,1794.8595 L1570.5397,1794.544 L1570.5759,1794.2346 L1570.6439,1793.9313 L1570.7435,1793.6342 L1570.875,1793.343 L1571.0339,1793.0664 L1571.2163,1792.8125 L1571.4221,1792.5814 L1571.6511,1792.373 L1571.9037,1792.1876 L1572.1796,1792.0248 L1572.4789,1791.8848 L1572.8013,1791.7676 L1573.1381,1791.6765 L1573.469,1791.6183 L1573.7942,1791.593 L1574.1135,1791.6006 L1574.4271,1791.6411 L1574.735,1791.7145 L1575.0372,1791.8208 L1575.3336,1791.96 L1575.6155,1792.1271 L1575.8743,1792.3171 L1576.1095,1792.5304 L1576.3217,1792.7664 L1576.5105,1793.0255 L1576.6761,1793.3075 L1576.8185,1793.6125 L1576.9377,1793.9406 L1577.0267,1794.2695 L1577.0839,1794.5929 L1577.1091,1794.9108 L1577.1024,1795.2231 L1577.0638,1795.53 L1576.9934,1795.8314 L1576.891,1796.1272 L1576.7563,1796.4175 L1576.595,1796.6936 L1576.4111,1796.9467 L1576.205,1797.177 L1575.9764,1797.3843 L1575.7255,1797.5687 L1575.4523,1797.7302 L1575.1567,1797.8687 L1574.8389,1797.9844 z" stroke="#000000" stroke-width="0.24" stroke-linecap="round" stroke-linejoin="round" fill="none" />
  <path d="M1578.6791,1796.0898 L1578.9532,1796.3695 L1579.2366,1796.6108 L1579.5568,1796.8306 L1579.9,1797.0101 L1580.2637,1797.1431 L1580.6388,1797.2277 L1581.0236,1797.2646 L1581.4178,1797.2542 L1581.8062,1797.1992 L1582.1887,1797.1047 L1582.5732,1796.9719 L1582.9371,1796.8082 L1583.2751,1796.6155 L1583.5876,1796.3936 L1583.8741,1796.1425 L1584.1372,1795.8591 L1584.3677,1795.5557 L1584.5752,1795.2205 L1584.7501,1794.8721 L1584.8899,1794.5162 L1584.9954,1794.1495 L1585.0664,1793.7722 L1585.1031,1793.3842 L1585.1057,1792.9855 L1585.0746,1792.5813 L1585.0171,1792.204 L1584.9318,1791.818 L1584.8218,1791.4326 L1584.6859,1791.0441 L1584.5299,1790.6741 L1584.3553,1790.3276 L1584.162,1790.0048 L1583.9362,1789.6874 L1583.6843,1789.3911 L1583.4192,1789.1301 L1583.1176,1788.8833 L1582.7935,1788.6653 L1582.4406,1788.4723 L1582.0721,1788.311 L1581.7003,1788.1879 L1581.3251,1788.1031 L1580.9468,1788.0565 L1580.565,1788.0483 L1580.1821,1788.0779 L1579.7974,1788.1451 L1579.4115,1788.2493 L1579.0343,1788.3895 L1578.6833,1788.5645 L1578.3639,1788.7722 L1578.0729,1789.0161 L1577.8091,1789.2999 L1577.5818,1789.6174 L1577.3965,1789.9647 L1577.2502,1790.3456 L1577.151,1790.7234 L1577.0901,1791.0837 L1577.0547,1791.4783 L1576.8225,1791.1754 L1576.5796,1790.8992 L1576.3257,1790.6497 L1576.0607,1790.4266 L1575.7848,1790.2303 L1575.4979,1790.0607 L1575.2002,1789.9175 L1574.8914,1789.8011 L1574.5746,1789.7115 L1574.2527,1789.6489 L1573.9257,1789.6132 L1573.5934,1789.6044 L1573.2562,1789.6226 L1572.9138,1789.6677 L1572.5663,1789.7396 L1572.2136,1789.8386 L1571.7394,1790.0128 L1571.2983,1790.2241 L1570.8907,1790.4725 L1570.5162,1790.7583 L1570.1754,1791.0812 L1569.8677,1791.4414 L1569.5933,1791.8389 L1569.3524,1792.2733 L1569.1533,1792.7336 L1569.0046,1793.2081 L1568.9066,1793.6968 L1568.8589,1794.1998 L1568.8617,1794.7168 L1568.915,1795.248 L1569.0188,1795.7936 L1569.173,1796.3531 L1569.369,1796.8995 L1569.5984,1797.4053 L1569.861,1797.8702 L1570.1569,1798.2944 L1570.4861,1798.678 L1570.8485,1799.0209 L1571.2441,1799.323 L1571.6731,1799.5845 L1572.1222,1799.8005 L1572.5784,1799.9667 L1573.0413,1800.0829 L1573.5114,1800.1489 L1573.9883,1800.1652 L1574.4723,1800.1313 L1574.9633,1800.0476 L1575.4613,1799.9137 L1575.8234,1799.7861 L1576.1628,1799.6395 L1576.4796,1799.4741 L1576.7738,1799.2898 L1577.0452,1799.0868 L1577.294,1798.8647 L1577.52,1798.6239 L1577.7234,1798.3641 L1577.9022,1798.0883 L1578.0547,1797.7983 L1578.1807,1797.495 L1578.2803,1797.1777 L1578.3533,1796.8469 L1578.4,1796.5023 L1578.4204,1796.1439 L1578.4142,1795.7719 z" stroke="#000000" stroke-width="0.24" stroke-linecap="round" stroke-linejoin="round" fill="none" />
  <path d="M1402.1879,1800.2538 L1402.5476,1799.7518 L1402.9409,1799.2418 L1403.3684,1798.7241 L1404.3243,1797.6648 L1405.4159,1796.5741 L1406.0005,1796.031 L1406.5956,1795.508 L1407.201,1795.0054 L1407.8169,1794.5228 L1408.4431,1794.0603 L1409.0796,1793.618 L1409.7266,1793.196 L1410.3839,1792.7943 L1411.3473,1792.2561 L1412.3727,1791.7592 L1413.46,1791.3032 L1414.609,1790.8882 L1414.0815,1788.8583 L1413.0984,1789.1766 L1412.0386,1789.6058 L1410.9022,1790.1456 L1409.689,1790.7961 L1408.4597,1791.5376 L1407.2744,1792.3503 L1406.1333,1793.2343 L1405.0363,1794.1896 L1404.0132,1795.1783 L1403.0938,1796.163 L1402.2778,1797.1432 L1401.5656,1798.1193 L1399.5184,1790.2412 L1397.6202,1790.7345 L1400.3259,1801.1471 L1401.862,1800.748 z" stroke="#000000" stroke-width="0.24" stroke-linecap="round" stroke-linejoin="round" fill="none" />
  <path d="M1233.2484,1791.3016 L1233.2314,1790.8022 L1233.2697,1790.3029 L1233.3629,1789.8036 L1233.5105,1789.3275 L1233.7112,1788.8975 L1233.9652,1788.5132 L1234.2723,1788.1748 L1234.6166,1787.8884 L1234.9823,1787.66 L1235.3694,1787.4894 L1235.7778,1787.3767 L1236.0818,1787.332 L1236.3811,1787.3204 L1236.6759,1787.3418 L1236.9662,1787.3962 L1237.2518,1787.4836 L1237.533,1787.6042 L1237.8094,1787.7578 L1238.0815,1787.9445 L1238.3395,1788.1614 L1238.5746,1788.406 L1238.7865,1788.6782 L1238.9752,1788.9783 L1239.141,1789.3058 L1239.2836,1789.6611 L1239.4031,1790.0441 L1239.4995,1790.4547 L1239.5653,1790.855 L1239.5996,1791.2389 L1239.6023,1791.6067 L1239.5736,1791.9583 L1239.5134,1792.2935 L1239.4215,1792.6127 L1239.2982,1792.9155 L1239.1434,1793.2021 L1238.9628,1793.4675 L1238.7621,1793.7062 L1238.5415,1793.9183 L1238.3011,1794.1039 L1238.0405,1794.2628 L1237.76,1794.3953 L1237.4596,1794.5012 L1237.1392,1794.5806 L1236.8147,1794.6301 L1236.4967,1794.6478 L1236.1855,1794.6337 L1235.8806,1794.5875 L1235.5824,1794.5096 L1235.2906,1794.3999 L1235.0055,1794.2583 L1234.727,1794.0847 L1234.464,1793.8834 L1234.2261,1793.658 L1234.013,1793.4084 L1233.8247,1793.135 L1233.6615,1792.8376 L1233.523,1792.5161 L1233.4093,1792.1707 L1233.3208,1791.8013 z" stroke="#000000" stroke-width="0.24" stroke-linecap="round" stroke-linejoin="round" fill="none" />
  <path d="M1240.6223,1797.2479 L1240.586,1797.807 L1240.5072,1798.2935 L1240.386,1798.7074 L1240.2223,1799.0488 L1240.0593,1799.2831 L1239.8796,1799.4938 L1239.6833,1799.6809 L1239.4705,1799.8444 L1239.2412,1799.9843 L1238.9952,1800.1007 L1238.7327,1800.1935 L1238.4536,1800.2627 L1237.9991,1800.3201 L1237.56,1800.3073 L1237.1362,1800.2242 L1236.7279,1800.0713 L1236.4703,1799.9396 L1236.2212,1799.7863 L1235.9802,1799.6115 L1235.7474,1799.4152 L1235.5231,1799.1971 L1235.3069,1798.9576 L1234.8993,1798.414 L1234.7083,1798.1022 L1234.5262,1797.7532 L1234.3533,1797.3672 L1234.1892,1796.944 L1233.8883,1795.9866 L1233.6233,1794.8807 L1234.0913,1795.3048 L1234.5848,1795.6525 L1234.8411,1795.7976 L1235.1035,1795.9238 L1235.3723,1796.031 L1235.6475,1796.119 L1236.2036,1796.2426 L1236.7592,1796.2991 L1237.3136,1796.289 L1237.8674,1796.2117 L1238.3375,1796.0946 L1238.7809,1795.9366 L1239.1973,1795.7378 L1239.5868,1795.498 L1239.9495,1795.2173 L1240.2853,1794.8956 L1240.5942,1794.5332 L1240.8765,1794.1298 L1241.1213,1793.6971 L1241.3185,1793.247 L1241.4679,1792.7793 L1241.5697,1792.2941 L1241.6238,1791.7913 L1241.6304,1791.271 L1241.5891,1790.7332 L1241.5004,1790.1779 L1241.4167,1789.8123 L1241.3147,1789.4575 L1241.194,1789.113 L1241.0546,1788.7793 L1240.8965,1788.4559 L1240.7196,1788.1432 L1240.5243,1787.841 L1240.3102,1787.5493 L1240.081,1787.2738 L1239.8407,1787.0199 L1239.5892,1786.7875 L1239.3265,1786.5768 L1239.0525,1786.3876 L1238.7673,1786.2202 L1238.4711,1786.0743 L1238.1635,1785.9502 L1237.8475,1785.8481 L1237.5267,1785.7693 L1237.2006,1785.7135 L1236.8691,1785.6808 L1236.5327,1785.671 L1236.1912,1785.6842 L1235.8442,1785.7206 L1235.4922,1785.7799 L1234.9072,1785.9258 L1234.3612,1786.1215 L1233.8542,1786.3673 L1233.3862,1786.6631 L1232.9573,1787.0089 L1232.5671,1787.4048 L1232.2162,1787.8506 L1231.9039,1788.3464 L1231.7654,1788.6146 L1231.6423,1788.8984 L1231.4429,1789.5131 L1231.3054,1790.1901 L1231.2301,1790.9297 L1231.2169,1791.7318 L1231.2656,1792.5963 L1231.3766,1793.5234 L1231.5494,1794.5131 L1231.7963,1795.6105 L1232.0801,1796.6196 L1232.4011,1797.5402 L1232.7594,1798.3724 L1233.1547,1799.1161 L1233.3663,1799.4547 L1233.5873,1799.7714 L1233.8174,1800.0659 L1234.0569,1800.3383 L1234.3055,1800.5884 L1234.5636,1800.8165 L1235.0321,1801.163 L1235.5214,1801.4465 L1236.0311,1801.6674 L1236.5615,1801.8253 L1237.1127,1801.9205 L1237.6843,1801.9529 L1238.2766,1801.9226 L1238.8895,1801.8295 L1239.3406,1801.7224 L1239.7639,1801.5869 L1240.16,1801.4231 L1240.5284,1801.231 L1240.8695,1801.0104 L1241.1831,1800.7614 L1241.469,1800.4841 L1241.7275,1800.1783 L1241.955,1799.8491 L1242.1478,1799.5007 L1242.3059,1799.1335 L1242.4292,1798.7476 L1242.5178,1798.3425 L1242.5719,1797.9186 L1242.5912,1797.4758 L1242.5758,1797.014 z" stroke="#000000" stroke-width="0.24" stroke-linecap="round" stroke-linejoin="round" fill="none" />
  <path d="M1062.9946,1790.8981 L1063.011,1790.5194 L1063.0498,1790.1617 L1063.111,1789.8251 L1063.1946,1789.5094 L1063.3007,1789.2146 L1063.4291,1788.941 L1063.5801,1788.6882 L1063.7534,1788.4564 L1063.9451,1788.2465 L1064.151,1788.059 L1064.3711,1787.8938 L1064.6055,1787.7513 L1064.854,1787.6312 L1065.1167,1787.5336 L1065.3936,1787.4585 L1065.6846,1787.4058 L1066.0392,1787.3738 L1066.3844,1787.3776 L1066.7207,1787.4171 L1067.0477,1787.4923 L1067.3657,1787.6033 L1067.6747,1787.75 L1067.9745,1787.9325 L1068.2651,1788.1509 L1068.5372,1788.4 L1068.7812,1788.6758 L1068.9974,1788.9779 L1069.1855,1789.3064 L1069.3457,1789.6614 L1069.4779,1790.0427 L1069.5819,1790.4504 L1069.658,1790.8845 L1069.7007,1791.3007 L1069.7102,1791.6986 L1069.6868,1792.078 L1069.6304,1792.4393 L1069.5411,1792.7823 L1069.419,1793.1069 L1069.2637,1793.4132 L1069.0754,1793.7014 L1068.8594,1793.9663 L1068.6204,1794.203 L1068.3589,1794.4115 L1068.0746,1794.5919 L1067.7676,1794.7441 L1067.4379,1794.8683 L1067.0852,1794.9641 L1066.71,1795.0319 L1066.2375,1795.0697 L1065.7808,1795.0498 L1065.3401,1794.9719 L1064.9153,1794.8364 L1064.5168,1794.6528 L1064.1553,1794.4312 L1063.8307,1794.1711 L1063.543,1793.8729 L1061.7101,1794.3752 L1064.4336,1802.4747 L1072.486,1801.3564 L1072.222,1799.4565 L1065.7603,1800.354 L1064.2834,1796.1232 L1064.6831,1796.3104 L1065.0831,1796.4653 L1065.483,1796.5879 L1065.8832,1796.6779 L1066.2833,1796.7356 L1066.6835,1796.761 L1067.0837,1796.7539 L1067.4841,1796.7145 L1068.0009,1796.6194 L1068.4904,1796.4812 L1068.9529,1796.2999 L1069.3882,1796.0757 L1069.7965,1795.8085 L1070.1777,1795.4982 L1070.5319,1795.1448 L1070.8589,1794.7485 L1071.1478,1794.3207 L1071.3876,1793.8728 L1071.578,1793.4052 L1071.7192,1792.9176 L1071.8113,1792.4102 L1071.8541,1791.8828 L1071.8479,1791.3354 L1071.7924,1790.7683 L1071.6973,1790.231 L1071.5647,1789.7178 L1071.3948,1789.2288 L1071.1874,1788.7638 L1070.9426,1788.3232 L1070.6603,1787.9069 L1070.3406,1787.5146 L1069.9833,1787.1465 L1069.5122,1786.7423 L1069.014,1786.4044 L1068.4889,1786.1328 L1067.9368,1785.9277 L1067.3574,1785.7891 L1066.7512,1785.7166 L1066.1179,1785.7106 L1065.4576,1785.771 L1064.9208,1785.8654 L1064.4146,1785.9946 L1063.9391,1786.1592 L1063.4945,1786.3589 L1063.0804,1786.5938 L1062.6973,1786.8636 L1062.3447,1787.1688 L1062.0231,1787.509 L1061.7372,1787.8768 L1061.4922,1788.2646 L1061.2882,1788.6724 L1061.1252,1789.1001 L1061.003,1789.548 L1060.922,1790.0156 L1060.8818,1790.5034 L1060.8826,1791.0112 z" stroke="#000000" stroke-width="0.24" stroke-linecap="round" stroke-linejoin="round" fill="none" />
  <path d="M900.79694,1801.7544 L899.91766,1791.1606 L902.1257,1790.9774 L901.97296,1789.1375 L899.76495,1789.3207 L899.4401,1785.4065 L897.43286,1785.5731 L897.7578,1789.4872 L890.6654,1790.0759 L890.81824,1791.9159 L899.1577,1801.8905" stroke="#000000" stroke-width="0.24" stroke-linecap="round" stroke-linejoin="round" fill="none" />
  <path d="M898.5222,1798.6982 L892.792,1791.7521 L897.9104,1791.3273" stroke="#000000" stroke-width="0.24" stroke-linecap="round" stroke-linejoin="round" fill="none" />
  <path d="M1908.3357,1789.3743 L1908.5428,1788.5636" stroke="#000000" stroke-width="0.24" stroke-linecap="round" stroke-linejoin="round" fill="none" />
  <path d="M1729.8337,1830.6943 L1732.7809,1834.263 L1732.857,1834.3517 L1735.7444,1837.5905 L1738.7352,1840.6995 L1743.1079,1838.4061 L1747.3768,1835.9248 L1751.6248,1833.187 L1755.7397,1830.2532 L1760.6542,1830.9844 L1765.5897,1831.5552 L1774.7772,1832.2506 L1776.3193,1827.8478 L1777.678,1823.3569 L1777.7986,1822.9246 L1778.9194,1818.5846 L1779.9039,1814.2113 L1780.2535,1814.008 L1783.914,1811.1693 L1787.4724,1808.2041 L1787.561,1808.1274 L1790.7899,1805.2217 L1793.8885,1802.2108 L1791.5952,1797.838 L1789.1138,1793.5691 L1786.376,1789.321 L1783.4423,1785.2062 L1784.1733,1780.2917 L1784.7441,1775.3562 L1785.4397,1766.1687 L1781.0369,1764.6266 L1776.5461,1763.268 L1776.1135,1763.1473 L1771.7736,1762.0265 L1767.4003,1761.042 L1767.197,1760.6923 L1764.3583,1757.032 L1761.3932,1753.4734 L1761.3165,1753.3849 L1758.4108,1750.1559 L1755.3998,1747.0574 L1751.027,1749.3507 L1746.758,1751.832 L1742.5101,1754.5698 L1738.3953,1757.5037 L1733.4807,1756.7725 L1728.5452,1756.2018 L1719.3577,1755.5062 L1717.8156,1759.909 L1716.4569,1764.3999 L1716.3363,1764.8323 L1715.2155,1769.1724 L1714.231,1773.5455 L1713.8813,1773.7488 L1710.2211,1776.5875 L1706.6625,1779.5527 L1706.5739,1779.6294 L1703.3451,1782.5352 L1700.2463,1785.5461 L1702.5398,1789.9188 L1705.0211,1794.1877 L1707.7589,1798.4358 L1710.6927,1802.5507 L1709.9615,1807.4651 L1709.3907,1812.4006 L1708.6952,1821.5881 L1713.1085,1823.1498 L1717.6091,1824.5275 L1718.0425,1824.6497 L1722.3906,1825.7876 L1726.7723,1826.7886 L1727.0121,1827.0256 z" stroke="#000000" stroke-width="0.24" stroke-linecap="round" stroke-linejoin="round" fill="none" />
  <path d="M730.01373,1797.1423 L729.9377,1797.5499 L729.8456,1797.929 L729.7375,1798.2792 L729.6133,1798.601 L729.473,1798.894 L729.3168,1799.1583 L729.1444,1799.3942 L728.9561,1799.6013 L728.7537,1799.7828 L728.5393,1799.9417 L728.31274,1800.0779 L728.0742,1800.1915 L727.82367,1800.2825 L727.56104,1800.3507 L727.28644,1800.3965 L726.99976,1800.4196 L726.6585,1800.4181 L726.3295,1800.3861 L726.0129,1800.3235 L725.70856,1800.2301 L725.4165,1800.1063 L725.1367,1799.9517 L724.86926,1799.7666 L724.6141,1799.5507 L724.3798,1799.3119 L724.1748,1799.0574 L723.99915,1798.7874 L723.85284,1798.5017 L723.7359,1798.2006 L723.64825,1797.8839 L723.58997,1797.5516 L723.5611,1797.2037 L723.56165,1796.8715 L723.59045,1796.553 L723.6476,1796.2482 L723.73303,1795.9572 L723.84674,1795.6799 L723.9888,1795.4164 L724.15906,1795.1666 L724.35767,1794.9307 L724.5784,1794.7151 L724.8154,1794.5262 L725.06854,1794.3646 L725.3378,1794.2297 L725.62317,1794.1217 L725.92474,1794.0406 L726.2425,1793.9867 L726.57635,1793.9595 L726.873,1793.9612 L727.20496,1793.9891 L727.5722,1794.0427 L727.9748,1794.1226 L727.68665,1792.4025 L727.3702,1792.4371 L727.0591,1792.4393 L726.75507,1792.4207 L726.4581,1792.3813 L726.16815,1792.3209 L725.88525,1792.2399 L725.6095,1792.138 L725.34064,1792.0151 L725.07886,1791.8715 L724.83594,1791.7057 L724.62354,1791.5165 L724.4417,1791.3036 L724.2904,1791.0674 L724.1697,1790.8077 L724.0796,1790.5244 L724.02,1790.2178 L723.991,1789.8876 L723.9919,1789.6221 L724.01605,1789.3673 L724.06366,1789.1234 L724.1346,1788.8899 L724.22894,1788.6674 L724.3467,1788.4554 L724.4877,1788.2542 L724.6522,1788.0637 L724.8355,1787.8894 L725.0329,1787.7368 L725.2447,1787.606 L725.4706,1787.4966 L725.7107,1787.409 L725.9652,1787.3431 L726.23376,1787.2991 L726.5166,1787.2766 L726.79834,1787.2766 L727.0689,1787.2997 L727.3285,1787.3457 L727.577,1787.4149 L727.81445,1787.5071 L728.04083,1787.6223 L728.25616,1787.7606 L728.4604,1787.922 L728.651,1788.1064 L728.82544,1788.3142 L728.9837,1788.5452 L729.12573,1788.7994 L729.25165,1789.0769 L729.36127,1789.3777 L729.4548,1789.7017 L729.53204,1790.0491 L731.48755,1789.6199 L731.3636,1789.143 L731.2121,1788.695 L731.0329,1788.276 L730.82623,1787.886 L730.59186,1787.5251 L730.32996,1787.1931 L730.04034,1786.8904 L729.7232,1786.6165 L729.3831,1786.3745 L729.025,1786.1675 L728.64874,1785.995 L728.25433,1785.8575 L727.8418,1785.7548 L727.4112,1785.6869 L726.96234,1785.6538 L726.4955,1785.6554 L725.85333,1785.7164 L725.2401,1785.8469 L724.6556,1786.0468 L724.0999,1786.3159 L723.59216,1786.6442 L723.3634,1786.8265 L723.1514,1787.0211 L722.95624,1787.2279 L722.7777,1787.4467 L722.61597,1787.6777 L722.471,1787.921 L722.23474,1788.4258 L722.0722,1788.9425 L721.9835,1789.4714 L721.96857,1790.0125 L722.0238,1790.5192 L722.1479,1790.9999 L722.34076,1791.4545 L722.6025,1791.883 L722.7587,1792.0851 L722.9313,1792.2754 L723.3253,1792.6213 L723.78455,1792.9207 L724.3091,1793.1736 L723.96716,1793.2806 L723.6459,1793.4088 L723.34534,1793.5582 L723.06555,1793.729 L722.80646,1793.921 L722.5681,1794.1342 L722.3504,1794.3687 L722.1535,1794.6245 L721.97955,1794.8984 L721.8308,1795.1879 L721.7074,1795.4924 L721.60925,1795.812 L721.53644,1796.1471 L721.48883,1796.4976 L721.4665,1796.863 L721.4694,1797.2439 L721.514,1797.758 L721.60565,1798.2504 L721.7444,1798.7208 L721.9302,1799.1693 L722.1631,1799.5958 L722.443,1800.0005 L722.77,1800.3832 L723.1441,1800.744 L723.5534,1801.0706 L723.98627,1801.3503 L724.4425,1801.5835 L724.9223,1801.77 L725.42554,1801.9098 L725.9523,1802.003 L726.50244,1802.0496 L727.07605,1802.0493 L727.592,1802.009 L728.084,1801.9302 L728.552,1801.813 L728.9961,1801.6573 L729.41614,1801.4634 L729.81226,1801.2308 L730.1843,1800.9598 L730.53253,1800.6505 L730.8494,1800.311 L731.12805,1799.9498 L731.3683,1799.5669 L731.5701,1799.1622 L731.7336,1798.7358 L731.8587,1798.2876 L731.94543,1797.8177 L731.9938,1797.326 z" stroke="#000000" stroke-width="0.24" stroke-linecap="round" stroke-linejoin="round" fill="none" />
  <path d="M550.9922,1786.1018 L551.0392,1786.4528 L551.121,1786.7963 L551.23737,1787.1321 L551.48376,1787.6776 L551.79205,1788.2179 L552.1623,1788.7528 L552.5944,1789.2826 L553.1083,1789.8298 L553.72394,1790.4171 L554.44116,1791.0446 L555.26013,1791.712 L556.5012,1792.7266 L557.5245,1793.6313 L558.32996,1794.4261 L558.651,1794.7823 L558.9176,1795.1111 L559.1423,1795.4242 L559.33765,1795.7333 L559.5037,1796.0387 L559.64044,1796.3402 L559.7479,1796.638 L559.8259,1796.9316 L559.87476,1797.2216 L559.8942,1797.5077 L559.88586,1797.8 L559.8506,1798.0813 L559.7886,1798.3513 L559.69965,1798.6101 L559.5839,1798.8578 L559.44135,1799.0941 L559.27203,1799.3192 L559.07574,1799.5332 L558.8578,1799.729 L558.6232,1799.8992 L558.37195,1800.0443 L558.1042,1800.1641 L557.8197,1800.2584 L557.5187,1800.3275 L557.2009,1800.3712 L556.86664,1800.3896 L556.51337,1800.3821 L556.1777,1800.347 L555.8596,1800.2844 L555.55927,1800.1945 L555.27655,1800.0769 L555.0115,1799.9319 L554.7641,1799.7595 L554.53436,1799.5596 L554.32666,1799.3354 L554.1453,1799.0897 L553.99054,1798.8228 L553.86224,1798.5344 L553.7603,1798.2247 L553.68494,1797.8938 L553.6359,1797.5414 L553.6135,1797.1677 L551.55566,1797.4143 L551.6363,1797.9724 L551.753,1798.4957 L551.9055,1798.9844 L552.0942,1799.4379 L552.3187,1799.8564 L552.5793,1800.2401 L552.8758,1800.5889 L553.2084,1800.9028 L553.5733,1801.18 L553.96735,1801.4191 L554.3902,1801.6198 L554.8421,1801.7822 L555.32294,1801.9064 L555.83276,1801.9922 L556.37146,1802.0399 L556.9392,1802.0492 L557.51135,1802.0192 L558.05206,1801.949 L558.5615,1801.8384 L559.0396,1801.6877 L559.48645,1801.4968 L559.9019,1801.2656 L560.286,1800.9944 L560.6388,1800.6827 L560.95435,1800.3416 L561.22675,1799.9817 L561.45605,1799.603 L561.6421,1799.2057 L561.785,1798.7896 L561.88477,1798.3546 L561.94135,1797.9009 L561.95483,1797.4283 L561.9215,1796.9404 L561.8382,1796.4578 L561.7047,1795.9801 L561.5212,1795.5073 L561.2794,1795.0315 L560.9714,1794.5442 L560.59686,1794.0454 L560.156,1793.5354 L559.60425,1792.972 L558.89685,1792.3138 L558.03394,1791.5608 L557.0155,1790.7128 L555.512,1789.4662 L555.00586,1789.0215 L554.6632,1788.6959 L554.1861,1788.1621 L553.79803,1787.6239 L561.80945,1787.4888 L561.777,1785.561 L550.97986,1785.7432 z" stroke="#000000" stroke-width="0.24" stroke-linecap="round" stroke-linejoin="round" fill="none" />
  <path d="M384.6805,1785.652 L384.82428,1785.917 L383.38782,1785.6584 L383.4692,1802.0624 L385.47513,1802.0524 L385.4117,1789.2703 L385.8038,1789.6138" stroke="#000000" stroke-width="0.24" stroke-linecap="round" stroke-linejoin="round" fill="none" />
  <path d="M389.43552,1791.6686 L388.95154,1791.4767" stroke="#000000" stroke-width="0.24" stroke-linecap="round" stroke-linejoin="round" fill="none" />
  <path d="M389.43552,1791.6686 L389.4259,1789.7296 L388.60892,1789.317" stroke="#000000" stroke-width="0.24" stroke-linecap="round" stroke-linejoin="round" fill="none" />
  <path d="M384.82428,1785.917 L384.99103,1786.1841 L385.3935,1786.724 L385.88794,1787.2717 L386.4744,1787.8274 L387.13318,1788.366 L387.8447,1788.8627 L388.60892,1789.317" stroke="#000000" stroke-width="0.24" stroke-linecap="round" stroke-linejoin="round" fill="none" />
  <path d="M388.95154,1791.4767 L388.43738,1791.2417 L387.8931,1790.9636 L387.31857,1790.6427 L386.75723,1790.3 L386.25232,1789.957 L385.8038,1789.6138" stroke="#000000" stroke-width="0.24" stroke-linecap="round" stroke-linejoin="round" fill="none" />
  <path d="M384.6805,1785.652 L384.99103,1786.1841" stroke="#000000" stroke-width="0.24" stroke-linecap="round" stroke-linejoin="round" fill="none" />
  <path d="M1895.9701,1838.1854 L1901.5295,1844.8973 L1905.3727,1849.4019 L1909.1882,1853.7731 L1919.3137,1846.105 L1929.123,1838.0541 L1941.792,1839.836 L1954.1055,1841.4224 L1955.2803,1835.5374 L1956.3724,1829.5951 L1957.9172,1820.3903 L1958.3656,1817.5563 L1958.813,1817.269 L1961.484,1815.0995 L1968.1842,1809.523 L1972.6796,1805.6665 L1977.0408,1801.8362 L1969.3727,1791.7109 L1961.3218,1781.9017 L1963.1038,1769.2328 L1964.6902,1756.9192 L1958.8052,1755.7445 L1952.8629,1754.6523 L1943.6581,1753.1073 L1940.8241,1752.659 L1940.5369,1752.2118 L1938.3673,1749.5405 L1932.7908,1742.8403 L1928.9342,1738.345 L1925.1041,1733.9838 L1914.9788,1741.6519 L1905.1693,1749.7029 L1892.5005,1747.9208 L1880.187,1746.3346 L1879.0122,1752.2196 L1877.9199,1758.1617 L1876.3752,1767.3666 L1875.9269,1770.2006 L1875.4794,1770.4878 L1872.8083,1772.6573 L1866.1082,1778.2339 L1861.6128,1782.0903 L1857.2515,1785.9207 L1864.9197,1796.0459 L1872.9707,1805.8551 L1871.1886,1818.524 L1869.6022,1830.8376 L1875.4971,1832.0266 L1881.4485,1833.1321 L1890.6654,1834.6948 L1893.5026,1835.1478 L1893.8064,1835.5103 z" stroke="#000000" stroke-width="0.24" stroke-linecap="round" stroke-linejoin="round" fill="none" />
</svg>