<?xml version="1.0" encoding="utf-8" standalone="no"?>
<!DOCTYPE svg PUBLIC "-//W3C//DTD SVG 1.1//EN" "http://www.w3.org/Graphics/SVG/1.1/DTD/svg11.dtd">
<svg version="1.1" width="2384pt" height="3370pt" viewBox="0 0 2383.92 3370.32" xmlns="http://www.w3.org/2000/svg">
  <defs />
  <path d="M826.9885,1675.4175 L825.3519,1675.5824" stroke="#000000" stroke-width="0.24" stroke-linecap="round" stroke-linejoin="round" fill="none" />
  <path d="M824.6604,1672.4019 L823.9191,1665.0426" stroke="#000000" stroke-width="0.24" stroke-linecap="round" stroke-linejoin="round" fill="none" />
  <path d="M1335.316,1709.0516 L1336.7965,1708.7446 L1341.9711,1710.2649 L1347.2056,1711.564 L1352.4474,1712.5972 L1357.7373,1713.3458 L1359.6387,1708.2197 L1361.3481,1703.0264 L1362.9932,1697.2649 L1364.3988,1691.4406 L1369.5349,1689.32 L1374.5393,1686.9052 L1379.1157,1684.3595 L1383.5397,1681.5574 L1380.0576,1674.0002 L1377.0692,1668.3496 L1375.9526,1666.3743 L1374.5083,1664.3469 L1373.3605,1662.7748 L1375.0378,1657.8444 L1376.5139,1652.8502 L1377.728,1647.8875 L1378.674,1642.8666 L1373.5477,1640.9652 L1368.3545,1639.2555 L1362.5931,1637.6107 L1356.7687,1636.2051 L1354.648,1631.069 L1352.2333,1626.0646 L1349.6877,1621.4882 L1346.8855,1617.0642 L1339.3284,1620.5463 L1333.6776,1623.5347 L1331.7024,1624.6512 L1329.675,1626.0953 L1328.1028,1627.2434 L1323.1726,1625.566 L1318.1783,1624.0898 L1313.2156,1622.8759 L1308.1947,1621.9298 L1306.2933,1627.0562 L1304.5837,1632.2494 L1302.9388,1638.0107 L1301.5331,1643.8352 L1296.397,1645.9558 L1291.3927,1648.3706 L1286.8163,1650.9161 L1282.3923,1653.7184 L1285.8743,1661.2754 L1288.8627,1666.9261 L1289.9794,1668.9015 L1291.4236,1670.9287 L1292.5714,1672.501 L1290.8942,1677.4313 L1289.418,1682.4254 L1288.204,1687.3883 L1287.258,1692.409 L1292.3842,1694.3105 L1297.5775,1696.0201 L1303.3389,1697.665 L1309.1633,1699.0708 L1311.2839,1704.2067 L1313.6987,1709.2112 L1316.2443,1713.7876 L1319.0464,1718.2115 L1326.1685,1714.0988 L1331.5264,1710.6859 L1333.4059,1709.4302 z" stroke="#000000" stroke-width="0.24" stroke-linecap="round" stroke-linejoin="round" fill="none" />
  <path d="M1154.4844,1705.6458 L1156.6635,1705.9928 L1160.9219,1708.318 L1165.3153,1710.3765 L1169.809,1712.1193 L1174.4194,1713.5245 L1177.51,1709.859 L1180.3838,1706.0211 L1183.3298,1701.556 L1186.0026,1696.9221 L1190.9393,1695.9287 L1195.7878,1694.5685 L1200.1743,1692.9744 L1204.4308,1691.0598 L1204.131,1687.4241 L1203.6393,1683.8093 L1203.0453,1680.5624 L1202.3223,1677.3417 L1202.0735,1676.3464 L1201.7086,1675.3079 L1200.7542,1672.7166 L1203.1866,1668.7347 L1205.3708,1664.6115 L1207.2333,1660.423 L1208.7739,1656.1057 L1205.1084,1653.0151 L1201.2705,1650.1414 L1196.8053,1647.1952 L1192.1714,1644.5226 L1191.1781,1639.5858 L1189.8179,1634.7373 L1188.2239,1630.3507 L1186.3092,1626.0944 L1182.6735,1626.394 L1179.0587,1626.8859 L1175.8118,1627.48 L1172.5912,1628.2028 L1171.5958,1628.4515 L1170.5573,1628.8165 L1167.966,1629.771 L1163.9841,1627.3385 L1159.8608,1625.1543 L1155.6724,1623.2917 L1151.3551,1621.7511 L1148.2645,1625.4167 L1145.3907,1629.2545 L1142.4447,1633.7197 L1139.772,1638.3536 L1134.8352,1639.3469 L1129.9867,1640.7072 L1125.6001,1642.3013 L1121.3436,1644.2158 L1121.6436,1647.8516 L1122.1353,1651.4664 L1122.7292,1654.7134 L1123.452,1657.9341 L1123.7008,1658.9292 L1124.0659,1659.9679 L1125.0204,1662.5591 L1122.5878,1666.541 L1120.4037,1670.6643 L1118.5413,1674.8528 L1117.0005,1679.1699 L1120.666,1682.2605 L1124.5039,1685.1343 L1128.969,1688.0804 L1133.603,1690.7533 L1134.5963,1695.69 L1135.9565,1700.5385 L1137.5507,1704.9249 L1139.4653,1709.1814 L1142.9602,1708.521 L1146.4199,1707.6957 L1152.6498,1705.8212 L1153.6105,1705.4913 z" stroke="#000000" stroke-width="0.24" stroke-linecap="round" stroke-linejoin="round" fill="none" />
  <path d="M978.4696,1702.8083 L981.96844,1705.4612 L985.6721,1707.8195 L989.5821,1709.852 L993.664,1711.5125 L997.4501,1709.5178 L1001.05396,1707.21 L1004.83606,1704.3123 L1008.3642,1701.1101 L1012.9452,1700.7102 L1017.47015,1699.8912 L1021.558,1698.754 L1025.5242,1697.2467 L1026.4434,1694.1237 L1027.1254,1690.9404 L1027.5974,1687.6113 L1027.8512,1684.2583 L1027.7345,1680.9601 L1030.4396,1677.7128 L1032.8644,1674.251 L1034.9541,1670.6089 L1036.6831,1666.7825 L1034.6884,1662.9963 L1032.3807,1659.3925 L1029.4829,1655.6104 L1026.2808,1652.0822 L1025.881,1647.5011 L1025.0618,1642.9761 L1023.9246,1638.8884 L1022.41736,1634.9221 L1019.2943,1634.0029 L1016.111,1633.321 L1012.782,1632.8489 L1009.42896,1632.5952 L1006.13074,1632.7118 L1002.88336,1630.0067 L999.42163,1627.5819 L995.77954,1625.4923 L991.95306,1623.7633 L988.16693,1625.758 L984.5631,1628.0657 L980.781,1630.9635 L977.2528,1634.1656 L972.67175,1634.5654 L968.1467,1635.3845 L964.059,1636.5217 L960.0928,1638.029 L959.17365,1641.1521 L958.49164,1644.3354 L958.01953,1647.6644 L957.7658,1651.0175 L957.88245,1654.3156 L955.1774,1657.563 L952.7526,1661.0247 L950.66296,1664.6669 L948.9339,1668.4934 L950.92865,1672.2794 L953.2362,1675.8833 L956.13403,1679.6654 L959.3362,1683.1935 L959.7361,1687.7745 L960.5551,1692.2996 L961.6924,1696.3873 L963.19965,1700.3536 L966.2609,1700.9623 L969.3589,1701.3428 L972.6278,1701.519 L975.9014,1701.4889 z" stroke="#000000" stroke-width="0.24" stroke-linecap="round" stroke-linejoin="round" fill="none" />
  <path d="M801.52515,1700.5547 L804.6304,1703.1465 L807.97003,1705.4283 L810.39777,1706.806 L812.9149,1708.0128 L815.45135,1709.0187 L819.52875,1708.7472 L823.5549,1708.0477 L827.7571,1706.8545 L831.8135,1705.233 L836.1154,1704.8705 L840.3563,1704.0619 L842.66125,1703.4202 L844.92334,1702.6409 L847.99207,1701.324 L849.9747,1698.9406 L851.741,1696.3928 L853.27313,1693.7294 L854.5858,1690.9509 L855.5821,1688.253 L858.1868,1685.2972 L860.4876,1682.0991 L861.87524,1679.7732 L863.094,1677.3547 L864.1106,1674.9163 L863.83905,1670.8389 L863.1397,1666.8127 L861.94635,1662.6106 L860.3249,1658.5542 L859.9623,1654.2522 L859.15375,1650.0112 L858.5121,1647.7064 L857.73267,1645.4442 L856.4159,1642.3755 L854.0325,1640.393 L851.4847,1638.6266 L848.82117,1637.0945 L846.04285,1635.7819 L843.3449,1634.7855 L840.389,1632.1808 L837.191,1629.88 L834.8651,1628.4923 L832.4466,1627.2736 L830.0081,1626.257 L825.9308,1626.5286 L821.90466,1627.2279 L817.70245,1628.4213 L813.64606,1630.0427 L809.34406,1630.4053 L805.1032,1631.2137 L802.7982,1631.8555 L800.5362,1632.6349 L797.46747,1633.9518 L795.48486,1636.3351 L793.71857,1638.8829 L792.1864,1641.5464 L790.8738,1644.3247 L789.87744,1647.0227 L787.27264,1649.9785 L784.97186,1653.1768 L783.5842,1655.5024 L782.3655,1657.921 L781.34894,1660.3595 L781.6204,1664.4369 L782.31976,1668.463 L783.5131,1672.6652 L785.13464,1676.7216 L785.4972,1681.0236 L786.30566,1685.2644 L786.9474,1687.5693 L787.7268,1689.8314 L789.04364,1692.9003 L791.4129,1694.7096 L793.9363,1696.2969 L796.5867,1697.6592 L799.3405,1698.7979 z" stroke="#000000" stroke-width="0.24" stroke-linecap="round" stroke-linejoin="round" fill="none" />
  <path d="M624.7828,1700.7621 L628.06445,1702.9469 L631.5268,1704.8328 L635.3666,1706.49 L639.3446,1707.7808 L643.53564,1709.1855 L647.8427,1710.1794 L652.2157,1710.7466 L656.62335,1710.8801 L660.8878,1709.9567 L665.0406,1708.6176 L668.9747,1706.9119 L672.7287,1704.8396 L675.7329,1703.2936 L678.6201,1701.5387 L681.22235,1699.6998 L683.69556,1697.6908 L685.782,1695.7432 L687.96533,1692.4004 L689.8492,1688.8801 L691.5049,1684.9802 L692.794,1680.9443 L694.1987,1676.7532 L695.19257,1672.4462 L695.75977,1668.0731 L695.89325,1663.6655 L694.9698,1659.401 L693.6306,1655.2484 L691.925,1651.3142 L689.8528,1647.5603 L688.3068,1644.5559 L686.5519,1641.6688 L684.71295,1639.0665 L682.70386,1636.5933 L680.7563,1634.5068 L677.4136,1632.3236 L673.8933,1630.4397 L669.99335,1628.784 L665.95746,1627.495 L661.76636,1626.0902 L657.4593,1625.0963 L653.0863,1624.5292 L648.6787,1624.3956 L644.41425,1625.319 L640.2615,1626.6582 L636.3274,1628.3639 L632.57336,1630.4362 L629.5691,1631.982 L626.68195,1633.7369 L624.0797,1635.5758 L621.60645,1637.5851 L619.52,1639.5326 L617.3367,1642.8754 L615.4528,1646.3955 L613.7972,1650.2955 L612.50806,1654.3315 L611.10333,1658.5225 L610.10944,1662.8296 L609.5423,1667.2025 L609.4088,1671.6102 L610.3323,1675.8746 L611.6713,1680.0275 L613.3771,1683.9615 L615.4493,1687.7155 L616.99713,1690.7887 L618.7541,1693.7476 L620.59485,1696.419 L622.6062,1698.9645 z" stroke="#000000" stroke-width="0.24" stroke-linecap="round" stroke-linejoin="round" fill="none" />
  <path d="M446.68777,1706.0854 L452.8834,1707.8883 L455.3646,1708.497 L460.0382,1709.4547 L464.75604,1710.163 L469.27878,1713.2654 L473.9679,1716.11 L478.6291,1718.5935 L483.41846,1720.8197 L487.99,1718.5275 L492.41513,1715.9639 L496.7659,1713.0835 L500.94186,1709.9548 L506.60947,1708.9913 L509.5378,1708.398 L517.6355,1706.4552 L521.01984,1705.2711 L522.82263,1698.4268 L523.43146,1695.7026 L524.388,1690.5984 L525.0974,1685.4541 L528.1998,1680.9314 L531.04443,1676.2423 L533.52783,1671.581 L535.75415,1666.7916 L533.46185,1662.2202 L530.8983,1657.7949 L528.01794,1653.4442 L524.8893,1649.2683 L523.9258,1643.6007 L523.3323,1640.6724 L521.3896,1632.5747 L520.20557,1629.1903 L513.3612,1627.3875 L510.63702,1626.7787 L505.53287,1625.8221 L500.38852,1625.1128 L495.86578,1622.0104 L491.17664,1619.1658 L486.51544,1616.6823 L481.7261,1614.4559 L477.15454,1616.7483 L472.7294,1619.3118 L468.37863,1622.1923 L464.20273,1625.3209 L458.5351,1626.2843 L455.60672,1626.8778 L447.50906,1628.8206 L444.12473,1630.0045 L442.3219,1636.8489 L441.7131,1639.5731 L440.75653,1644.6772 L440.04715,1649.8217 L436.94473,1654.3444 L434.10013,1659.0336 L431.61667,1663.6947 L429.3904,1668.484 L431.68268,1673.0555 L434.2462,1677.4807 L437.12662,1681.8315 L440.25525,1686.0073 L441.21875,1692.3428 L441.81223,1695.632 L443.755,1704.7963 z" stroke="#000000" stroke-width="0.24" stroke-linecap="round" stroke-linejoin="round" fill="none" />
  <path d="M261.0199,1724.3307 L288.99734,1724.3307 L312.4616,1747.8137 L335.9633,1724.3307 L362.9886,1724.3307 L369.18643,1724.3307 L369.18643,1691.1342 L392.6694,1667.6698 L369.18643,1644.1682 L369.18643,1617.1428 L369.18643,1610.945 L335.98972,1610.945 L312.52548,1587.4619 L289.02377,1610.945 L261.9985,1610.945 L255.80063,1610.945 L255.80063,1644.1417 L232.31766,1667.606 L255.80063,1691.1077 L255.80063,1724.3307 z" stroke="#000000" stroke-width="0.24" stroke-linecap="round" stroke-linejoin="round" fill="none" />
  <path d="M1842.4558,1665.2622 L1841.5996,1665.1316 L1840.8289,1664.9807 L1840.143,1664.8093 L1839.5425,1664.6176 L1839.0272,1664.4053 L1838.5972,1664.1725 L1838.2521,1663.9194 L1837.9707,1663.6514 L1837.7317,1663.374 L1837.5344,1663.0874 L1837.3794,1662.7914 L1837.2665,1662.4861 L1837.1956,1662.1714 L1837.1669,1661.8474 L1837.1799,1661.5142 L1837.2341,1661.1849 L1837.3278,1660.8735 L1837.4607,1660.5795 L1837.6333,1660.3031 L1837.8453,1660.0444 L1838.097,1659.8033 L1838.3883,1659.5797 L1838.7189,1659.3738 L1839.1088,1659.1952 L1839.5774,1659.0538 L1840.125,1658.9493 L1840.7515,1658.882 L1841.4567,1658.8518 L1842.2407,1658.8586 L1843.1035,1658.9026 L1844.0453,1658.9836 L1844.9891,1659.0939 L1845.8473,1659.2246 L1846.6195,1659.3757 L1847.3063,1659.5471 L1847.9071,1659.7391 L1848.4224,1659.9513 L1848.8519,1660.184 L1849.1957,1660.437 L1849.4756,1660.7052 L1849.7137,1660.9834 L1849.9097,1661.2717 L1850.0637,1661.5701 L1850.1758,1661.8784 L1850.2458,1662.1967 L1850.2742,1662.5251 L1850.2603,1662.8634 L1850.2089,1663.191 L1850.1235,1663.498 L1850.004,1663.7844 L1849.8507,1664.0499 L1849.6632,1664.295 L1849.4415,1664.5193 L1849.186,1664.723 L1848.8964,1664.9059 L1848.4684,1665.1025 L1847.9663,1665.2596 L1847.3901,1665.3772 L1846.7397,1665.4553 L1846.0151,1665.4938 L1845.2166,1665.4928 L1844.3439,1665.4523 L1843.397,1665.3722 z" stroke="#000000" stroke-width="0.24" stroke-linecap="round" stroke-linejoin="round" fill="none" />
  <path d="M1844.5443,1667.4894 L1845.1711,1667.507 L1845.765,1667.5028 L1846.3264,1667.4769 L1846.855,1667.4293 L1847.351,1667.3599 L1847.814,1667.2688 L1848.2494,1667.1567 L1848.6617,1667.0244 L1849.0514,1666.8718 L1849.4181,1666.6991 L1849.7618,1666.5061 L1850.0825,1666.293 L1850.3805,1666.0594 L1850.6556,1665.8058 L1850.9054,1665.5314 L1851.1277,1665.2352 L1851.3229,1664.9176 L1851.4906,1664.5785 L1851.6307,1664.2178 L1851.7435,1663.8356 L1851.8287,1663.4318 L1851.8867,1663.0065 L1851.9177,1662.3798 L1851.8799,1661.786 L1851.7732,1661.2251 L1851.598,1660.6973 L1851.3575,1660.2041 L1851.0555,1659.7473 L1850.6921,1659.3269 L1850.267,1658.943 L1849.7828,1658.5917 L1849.2423,1658.269 L1848.645,1657.9751 L1847.991,1657.7098 L1847.2456,1657.4751 L1846.3735,1657.2731 L1845.3751,1657.1036 L1844.25,1656.9668 L1842.9077,1656.8671 L1842.2847,1656.8494 L1841.6938,1656.8533 L1841.1348,1656.8787 L1840.6082,1656.9255 L1840.1134,1656.9939 L1839.6508,1657.0837 L1839.2155,1657.1946 L1838.8027,1657.3257 L1838.413,1657.4773 L1838.0459,1657.6493 L1837.7014,1657.8416 L1837.3796,1658.0542 L1837.0807,1658.2872 L1836.8043,1658.5408 L1836.5531,1658.8153 L1836.3296,1659.1118 L1836.1335,1659.43 L1835.9651,1659.7704 L1835.8241,1660.1324 L1835.7108,1660.5166 L1835.6248,1660.9226 L1835.5664,1661.3505 L1835.5354,1661.9154 L1835.5591,1662.4546 L1835.638,1662.968 L1835.7715,1663.4556 L1835.9601,1663.9175 L1836.2035,1664.3539 L1836.502,1664.7642 L1836.8552,1665.1489 L1837.095,1665.3667 L1837.3555,1665.574 L1837.6371,1665.771 L1837.9393,1665.9576 L1838.6064,1666.2998 L1839.3568,1666.6006 L1840.1908,1666.8599 L1841.1079,1667.0778 L1842.1084,1667.2542 L1843.1924,1667.3892 z" stroke="#000000" stroke-width="0.24" stroke-linecap="round" stroke-linejoin="round" fill="none" />
  <path d="M1850.7196,1674.5082 L1850.4456,1674.6211 L1850.848,1673.2434 L1834.8003,1671.615 L1834.6012,1673.5774 L1847.1057,1674.8463 L1846.7291,1675.1938" stroke="#000000" stroke-width="0.24" stroke-linecap="round" stroke-linejoin="round" fill="none" />
  <path d="M1844.3417,1678.5309 L1844.5797,1678.0776" stroke="#000000" stroke-width="0.24" stroke-linecap="round" stroke-linejoin="round" fill="none" />
  <path d="M1844.3417,1678.5309 L1846.2388,1678.7235 L1846.727,1677.9677" stroke="#000000" stroke-width="0.24" stroke-linecap="round" stroke-linejoin="round" fill="none" />
  <path d="M1850.4456,1674.6211 L1850.1671,1674.7563 L1849.5975,1675.0936 L1849.0103,1675.52" stroke="#000000" stroke-width="0.24" stroke-linecap="round" stroke-linejoin="round" fill="none" />
  <path d="M1519.0765,1709.6251 L1531.0906,1709.8339 L1537.0428,1709.6703 L1542.9855,1709.2937 L1543.2966,1696.9001 L1543.2157,1690.2711 L1542.9564,1683.6467 L1547.8611,1679.9569 L1552.6069,1676.0647 L1557.0073,1672.1329 L1561.2405,1668.0217 L1554.8694,1661.0024 L1548.0493,1654.0088 L1544.2085,1650.8569 L1544.7968,1639.1881 L1544.8477,1633.4419 L1544.7006,1627.6973 L1532.3071,1627.3857 L1525.678,1627.4667 L1519.0536,1627.7262 L1515.3638,1622.8214 L1511.4717,1618.0757 L1507.5397,1613.6753 L1503.4286,1609.4421 L1496.4093,1615.8131 L1489.4156,1622.6332 L1486.2637,1626.474 L1474.595,1625.8859 L1468.8486,1625.835 L1463.1041,1625.982 L1462.7926,1638.3756 L1462.8735,1645.0045 L1463.133,1651.629 L1458.2283,1655.3188 L1453.4825,1659.2109 L1449.0822,1663.1428 L1444.849,1667.254 L1451.22,1674.2734 L1458.04,1681.267 L1461.8809,1684.419 L1461.2927,1696.0876 L1461.2418,1701.8339 L1461.3888,1707.5786 L1473.7825,1707.8899 L1480.4114,1707.809 L1487.0358,1707.5496 L1490.7257,1712.4542 L1494.6178,1717.2 L1498.5497,1721.6003 L1502.6609,1725.8335 L1509.1736,1719.0016 L1515.7277,1711.7816 z" stroke="#000000" stroke-width="0.24" stroke-linecap="round" stroke-linejoin="round" fill="none" />
  <path d="M1848.4059,1676.0355 L1847.8107,1676.6237 L1847.2511,1677.2677 L1846.727,1677.9677" stroke="#000000" stroke-width="0.24" stroke-linecap="round" stroke-linejoin="round" fill="none" />
  <path d="M1844.5797,1678.0776 L1844.8632,1677.5994 L1845.1915,1677.0962 L1845.5652,1676.5679 L1845.9589,1676.0548 L1846.3467,1675.5967 L1846.7291,1675.1938" stroke="#000000" stroke-width="0.24" stroke-linecap="round" stroke-linejoin="round" fill="none" />
  <path d="M1850.7196,1674.5082 L1850.1671,1674.7563" stroke="#000000" stroke-width="0.24" stroke-linecap="round" stroke-linejoin="round" fill="none" />
  <path d="M1668.8807,1669.2614 L1668.5323,1669.0773 L1668.215,1668.875 L1667.9281,1668.6548 L1667.672,1668.4161 L1667.4469,1668.1594 L1667.2526,1667.8845 L1667.089,1667.5914 L1666.9575,1667.2898 L1666.8589,1666.9889 L1666.7938,1666.689 L1666.7618,1666.3899 L1666.763,1666.0916 L1666.7974,1665.7942 L1666.865,1665.4976 L1666.966,1665.2018 L1667.1008,1664.9075 L1667.2633,1664.6353 L1667.4528,1664.3856 L1667.6698,1664.158 L1667.9138,1663.9526 L1668.1852,1663.7697 L1668.484,1663.6089 L1668.8098,1663.4703 L1669.153,1663.3608 L1669.5033,1663.2869 L1669.8608,1663.2487 L1670.2256,1663.246 L1670.5974,1663.279 L1670.9767,1663.3478 L1671.363,1663.4521 L1671.7565,1663.5923 L1672.0992,1663.744 L1672.4144,1663.916 L1672.7025,1664.1083 L1672.9629,1664.3209 L1673.196,1664.5537 L1673.4019,1664.8068 L1673.5802,1665.0801 L1673.7311,1665.3735 L1673.8519,1665.6781 L1673.94,1665.9839 L1673.995,1666.2913 L1674.0172,1666.6002 L1674.0067,1666.9106 L1673.9634,1667.2225 L1673.8872,1667.536 L1673.7782,1667.851 L1673.6405,1668.1566 L1673.4805,1668.4369 L1673.2985,1668.692 L1673.0944,1668.9219 L1672.8679,1669.1266 L1672.6191,1669.306 L1672.3484,1669.4603 L1672.0553,1669.5894 L1671.7455,1669.6886 L1671.4241,1669.7537 L1671.0918,1669.7848 L1670.7479,1669.7816 L1670.393,1669.7443 L1670.0265,1669.6727 L1669.6488,1669.5671 L1669.2599,1669.4274 z" stroke="#000000" stroke-width="0.24" stroke-linecap="round" stroke-linejoin="round" fill="none" />
  <path d="M1677.9685,1666.2385 L1678.4924,1666.606 L1678.7147,1666.7961 L1678.9108,1666.9905 L1679.0803,1667.1891 L1679.2235,1667.392 L1679.3403,1667.599 L1679.4308,1667.8104 L1679.4971,1668.026 L1679.5415,1668.2457 L1679.5638,1668.4697 L1679.5645,1668.6979 L1679.5431,1668.9302 L1679.4998,1669.1666 L1679.3473,1669.6521 L1679.1603,1670.0521 L1678.9353,1670.4067 L1678.6724,1670.716 L1678.3713,1670.9799 L1678.0409,1671.2004 L1677.6891,1671.3794 L1677.3167,1671.517 L1676.9227,1671.6128 L1676.4937,1671.6683 L1676.0142,1671.6849 L1675.4847,1671.6624 L1674.9052,1671.6008 L1674.3049,1671.5015 L1673.7133,1671.3657 L1673.1302,1671.1936 L1672.5557,1670.9851 L1672.1932,1670.8292 L1672.6548,1670.7181 L1673.1008,1670.5579 L1673.5309,1670.3484 L1673.9348,1670.0972 L1674.3168,1669.8049 L1674.6654,1669.4768 L1674.973,1669.1168 L1675.2396,1668.725 L1675.4631,1668.306 L1675.6476,1667.8539 L1675.7886,1667.3844 L1675.879,1666.9161 L1675.9187,1666.449 L1675.908,1665.983 L1675.8441,1665.506 L1675.7362,1665.0616 L1675.5723,1664.5941 L1675.3799,1664.1746 L1675.1445,1663.7693 L1674.8711,1663.3906 L1674.5591,1663.0386 L1674.2086,1662.713 L1673.8198,1662.414 L1673.4197,1662.1571 L1673.001,1661.9312 L1672.5587,1661.7307 L1672.0852,1661.5511 L1671.6085,1661.406 L1671.1398,1661.2996 L1670.6794,1661.232 L1670.2273,1661.2034 L1669.7527,1661.2157 L1669.2993,1661.2704 L1668.8352,1661.3726 L1668.3816,1661.5204 L1667.9336,1661.7152 L1667.512,1661.9481 L1667.1224,1662.2164 L1666.7651,1662.5203 L1666.4401,1662.8597 L1666.1418,1663.2426 L1665.8956,1663.6298 L1665.6742,1664.0574 L1665.4882,1664.5034 L1665.3401,1664.9644 L1665.2358,1665.4285 L1665.1752,1665.8956 L1665.1587,1666.3658 L1665.1857,1666.8386 L1665.2559,1667.312 L1665.3676,1667.7728 L1665.5212,1668.2186 L1665.7178,1668.6495 L1665.9565,1669.0656 L1666.2312,1669.4578 L1666.5364,1669.8247 L1666.8623,1670.1609 L1667.2092,1670.4652 L1667.6063,1670.7657 L1668.0033,1671.0309 L1668.4125,1671.2772 L1668.8309,1671.5074 L1669.2515,1671.721 L1669.6685,1671.9183 L1670.1097,1672.114 L1670.5619,1672.3026 L1671.0251,1672.4855 L1671.4879,1672.658 L1671.9381,1672.8154 L1672.3754,1672.9579 L1672.8306,1673.0938 L1673.2878,1673.2167 L1673.7466,1673.3247 L1674.2065,1673.4155 L1674.6887,1673.4895 L1675.154,1673.5377 L1675.6283,1673.5591 L1676.1205,1673.5507 L1676.5936,1673.5109 L1677.0472,1673.4395 L1677.5093,1673.3289 L1677.9598,1673.1786 L1678.3971,1672.9861 L1678.8112,1672.7539 L1679.2023,1672.482 L1679.5625,1672.1764 L1679.8916,1671.8372 L1680.1895,1671.4644 L1680.4532,1671.063 L1680.6783,1670.6458 L1680.8705,1670.2104 L1681.0383,1669.7352 L1681.1588,1669.2745 L1681.2344,1668.8234 L1681.2651,1668.3496 L1681.243,1667.8756 L1681.1647,1667.4061 L1681.0355,1666.9625 L1680.8477,1666.5209 L1680.6147,1666.1173 L1680.3323,1665.7386 L1680,1665.385 L1679.6322,1665.0671 L1679.2466,1664.7911 L1678.8317,1664.5416 z" stroke="#000000" stroke-width="0.24" stroke-linecap="round" stroke-linejoin="round" fill="none" />
  <path d="M1501.485,1663.1926 L1501.6765,1663.3795 L1501.844,1663.5769 L1501.9872,1663.7848 L1502.1062,1664.0033 L1502.201,1664.2323 L1502.2717,1664.4718 L1502.3182,1664.7219 L1502.3394,1664.9758 L1502.3344,1665.2273 L1502.303,1665.4761 L1502.2455,1665.7223 L1502.1614,1665.9658 L1502.0511,1666.2068 L1501.9147,1666.4452 L1501.7518,1666.6809 L1501.5757,1666.897 L1501.3893,1667.0891 L1501.1926,1667.2576 L1500.9858,1667.4023 L1500.7687,1667.5234 L1500.5414,1667.6206 L1500.3038,1667.6942 L1500.0562,1667.744 L1499.806,1667.77 L1499.5615,1667.7715 L1499.3226,1667.7488 L1499.0894,1667.7018 L1498.8617,1667.6304 L1498.6395,1667.5349 L1498.423,1667.415 L1498.212,1667.2709 L1498.0065,1667.1019 L1497.8237,1666.9207 L1497.6636,1666.727 L1497.5261,1666.5214 L1497.4115,1666.3032 L1497.3196,1666.0729 L1497.2502,1665.8302 L1497.2036,1665.5752 L1497.1812,1665.3165 L1497.184,1665.0625 L1497.2123,1664.8131 L1497.2657,1664.5685 L1497.3447,1664.3285 L1497.4492,1664.0933 L1497.5787,1663.8628 L1497.7339,1663.637 L1497.9088,1663.4229 L1498.0944,1663.2319 L1498.291,1663.0642 L1498.4985,1662.9196 L1498.7169,1662.7982 L1498.9463,1662.6998 L1499.1863,1662.6248 L1499.4373,1662.5728 L1499.6903,1662.5443 L1499.9365,1662.5398 L1500.1758,1662.5593 L1500.4082,1662.6028 L1500.6338,1662.6702 L1500.8524,1662.7616 L1501.0642,1662.877 L1501.2693,1663.0162 z" stroke="#000000" stroke-width="0.24" stroke-linecap="round" stroke-linejoin="round" fill="none" />
  <path d="M1507.9031,1667.2333 L1508.1873,1667.5404 L1508.4359,1667.8834 L1508.649,1668.2622 L1508.8121,1668.665 L1508.9103,1669.0801 L1508.9436,1669.5073 L1508.9124,1669.9467 L1508.8224,1670.3817 L1508.6802,1670.7965 L1508.4857,1671.1909 L1508.2388,1671.5647 L1508.0199,1671.8326 L1507.7875,1672.0712 L1507.5416,1672.2804 L1507.2822,1672.4601 L1507.0094,1672.6105 L1506.723,1672.7314 L1506.4233,1672.823 L1506.11,1672.8853 L1505.7925,1672.9166 L1505.48,1672.9158 L1505.1724,1672.8826 L1504.8696,1672.8173 L1504.5719,1672.7196 L1504.279,1672.5897 L1503.9913,1672.4276 L1503.7084,1672.2332 L1503.4386,1672.0122 L1503.199,1671.7766 L1502.9895,1671.5267 L1502.81,1671.2623 L1502.6608,1670.9836 L1502.5415,1670.6904 L1502.4524,1670.3828 L1502.3934,1670.0607 L1502.3656,1669.7341 L1502.37,1669.4132 L1502.4066,1669.0977 L1502.4753,1668.788 L1502.5765,1668.4836 L1502.7097,1668.1849 L1502.8752,1667.8918 L1503.0729,1667.6041 L1503.2888,1667.3406 L1503.5188,1667.1061 L1503.7628,1666.9008 L1504.021,1666.7247 L1504.2931,1666.5778 L1504.5792,1666.4602 L1504.8795,1666.3716 L1505.1938,1666.3121 L1505.5123,1666.2832 L1505.8253,1666.2856 L1506.1324,1666.3197 L1506.4341,1666.3851 L1506.7299,1666.482 L1507.0201,1666.6106 L1507.3047,1666.7706 L1507.5835,1666.962 z" stroke="#000000" stroke-width="0.24" stroke-linecap="round" stroke-linejoin="round" fill="none" />
  <path d="M1503.851,1664.7301 L1503.9106,1664.1567 L1503.9082,1663.8829 L1503.8843,1663.6179 L1503.839,1663.3616 L1503.772,1663.114 L1503.6847,1662.8749 L1503.5781,1662.6445 L1503.452,1662.4229 L1503.3068,1662.2096 L1502.9581,1661.8093 L1502.5323,1661.4434 L1502.177,1661.2012 L1501.812,1661.001 L1501.4373,1660.8428 L1501.0529,1660.7266 L1500.6588,1660.6522 L1500.255,1660.62 L1499.8416,1660.6298 L1499.4185,1660.6814 L1498.9977,1660.7756 L1498.5911,1660.9131 L1498.1986,1661.0938 L1497.8206,1661.3177 L1497.4565,1661.585 L1497.1069,1661.8954 L1496.7714,1662.2489 L1496.4501,1662.6459 L1496.1573,1663.0676 L1495.9104,1663.4918 L1495.7095,1663.9183 L1495.5544,1664.3474 L1495.4456,1664.7788 L1495.3824,1665.2124 L1495.3655,1665.6487 L1495.3943,1666.0872 L1495.4647,1666.5159 L1495.5726,1666.9225 L1495.7178,1667.307 L1495.9003,1667.6694 L1496.1201,1668.0099 L1496.3773,1668.3282 L1496.6719,1668.6245 L1497.0038,1668.8987 L1497.4581,1669.194 L1497.9275,1669.4089 L1498.4119,1669.5435 L1498.9113,1669.5977 L1499.1655,1669.5934 L1499.4219,1669.567 L1499.6802,1669.5183 L1499.9404,1669.4471 L1500.4669,1669.2382 L1501.0011,1668.9401 L1500.8895,1669.3049 L1500.806,1669.6632 L1500.7505,1670.0149 L1500.7229,1670.36 L1500.7235,1670.6987 L1500.7521,1671.0308 L1500.8088,1671.3562 L1500.8936,1671.6752 L1501.0048,1671.985 L1501.1409,1672.2834 L1501.3019,1672.5703 L1501.4877,1672.8457 L1501.6985,1673.1096 L1501.9342,1673.362 L1502.1948,1673.603 L1502.4803,1673.8324 L1502.8977,1674.1173 L1503.3259,1674.3533 L1503.765,1674.5406 L1504.2151,1674.6792 L1504.676,1674.769 L1505.148,1674.81 L1505.6307,1674.8024 L1506.1245,1674.7458 L1506.6147,1674.6404 L1507.0873,1674.4856 L1507.5421,1674.2815 L1507.979,1674.028 L1508.3981,1673.7252 L1508.7994,1673.373 L1509.1831,1672.9717 L1509.549,1672.5209 L1509.8795,1672.0438 L1510.1577,1671.5634 L1510.3835,1671.0793 L1510.5569,1670.5919 L1510.6776,1670.1012 L1510.7461,1669.6069 L1510.762,1669.1094 L1510.7255,1668.6084 L1510.6404,1668.1173 L1510.5104,1667.6498 L1510.3358,1667.2053 L1510.1166,1666.7844 L1509.8524,1666.3868 L1509.5436,1666.0126 L1509.1902,1665.6617 L1508.7919,1665.3344 L1508.4774,1665.1138 L1508.1609,1664.9227 L1507.8423,1664.7611 L1507.5214,1664.6289 L1507.1984,1664.526 L1506.873,1664.4525 L1506.5457,1664.4086 L1506.2161,1664.3939 L1505.8876,1664.4088 L1505.5631,1664.4531 L1505.2429,1664.5269 L1504.927,1664.6302 L1504.6152,1664.7631 L1504.3077,1664.9253 L1504.0043,1665.1172 L1503.7052,1665.3384 z" stroke="#000000" stroke-width="0.24" stroke-linecap="round" stroke-linejoin="round" fill="none" />
  <path d="M1340.6722,1669.2604 L1340.0667,1669.139 L1338.7924,1668.8137 L1337.4335,1668.378 L1335.9904,1667.8319 L1334.5332,1667.1952 L1333.1327,1666.4874 L1331.7888,1665.7086 L1330.5013,1664.8588 L1329.6145,1664.202 L1328.7397,1663.472 L1327.8767,1662.6687 L1327.0258,1661.792 L1325.3926,1663.1078 L1326.0873,1663.8729 L1326.9144,1664.6624 L1327.874,1665.4761 L1328.9661,1666.3141 L1330.1476,1667.1296 L1331.3759,1667.8755 L1332.6511,1668.552 L1333.9731,1669.1588 L1335.2952,1669.6846 L1336.5708,1670.1176 L1337.7999,1670.458 L1338.9828,1670.7057 L1332.6443,1675.8125 L1333.8748,1677.3397 L1342.2524,1670.59 L1341.2566,1669.354 z" stroke="#000000" stroke-width="0.24" stroke-linecap="round" stroke-linejoin="round" fill="none" />
  <path d="M1158.7378,1665.9829 L1158.5951,1665.504 L1158.5059,1665.0112 L1158.4702,1664.5048 L1158.4928,1664.0067 L1158.5785,1663.5398 L1158.727,1663.1039 L1158.9388,1662.699 L1159.1997,1662.3351 L1159.4957,1662.0216 L1159.8271,1661.7588 L1160.194,1661.5466 L1160.4769,1661.4266 L1160.7637,1661.3397 L1161.0542,1661.2861 L1161.3488,1661.2655 L1161.6473,1661.278 L1161.9498,1661.3236 L1162.2561,1661.4023 L1162.5663,1661.5143 L1162.8708,1661.6589 L1163.1602,1661.8364 L1163.4338,1662.0463 L1163.6923,1662.2888 L1163.9353,1662.564 L1164.163,1662.8717 L1164.3754,1663.2122 L1164.5724,1663.5852 L1164.7369,1663.9557 L1164.8672,1664.3187 L1164.9626,1664.6737 L1165.0237,1665.0212 L1165.0502,1665.361 L1165.0417,1665.6929 L1164.9989,1666.0171 L1164.9215,1666.3335 L1164.8137,1666.6359 L1164.6799,1666.9175 L1164.52,1667.1783 L1164.3341,1667.4186 L1164.1222,1667.6382 L1163.8843,1667.8373 L1163.6204,1668.0156 L1163.3303,1668.1732 L1163.0288,1668.3031 L1162.7257,1668.4005 L1162.4209,1668.4655 L1162.1144,1668.4978 L1161.8062,1668.4978 L1161.4962,1668.4652 L1161.1844,1668.4001 L1160.871,1668.3027 L1160.5658,1668.1742 L1160.2786,1668.0161 L1160.0094,1667.8286 L1159.7583,1667.6116 L1159.5251,1667.365 L1159.31,1667.0889 L1159.1128,1666.7832 L1158.9337,1666.4482 z" stroke="#000000" stroke-width="0.24" stroke-linecap="round" stroke-linejoin="round" fill="none" />
  <path d="M1167.3741,1669.8748 L1167.4801,1670.4248 L1167.5267,1670.9154 L1167.514,1671.3466 L1167.4418,1671.7183 L1167.3433,1671.986 L1167.2225,1672.2352 L1167.08,1672.466 L1166.9153,1672.6777 L1166.7288,1672.8711 L1166.5201,1673.0459 L1166.2896,1673.2019 L1166.0369,1673.3394 L1165.6116,1673.5095 L1165.1836,1673.6082 L1164.7526,1673.6349 L1164.3187,1673.5898 L1164.0364,1673.5275 L1163.7565,1673.442 L1163.4792,1673.3337 L1163.2045,1673.2025 L1162.9321,1673.0483 L1162.6626,1672.8712 L1162.131,1672.4481 L1161.8674,1672.1946 L1161.6031,1671.9028 L1161.3383,1671.5729 L1161.0728,1671.205 L1160.5397,1670.3545 L1160.0042,1669.3517 L1160.5642,1669.6437 L1161.1294,1669.8555 L1161.6998,1669.987 L1162.2754,1670.0385 L1162.8447,1670.0176 L1163.3964,1669.9321 L1163.9305,1669.7822 L1164.4468,1669.5677 L1164.8721,1669.3357 L1165.2612,1669.0708 L1165.6138,1668.7733 L1165.9303,1668.443 L1166.2103,1668.0797 L1166.454,1667.6837 L1166.6616,1667.255 L1166.8326,1666.7935 L1166.9603,1666.313 L1167.0374,1665.8276 L1167.064,1665.3374 L1167.0399,1664.8422 L1166.9655,1664.342 L1166.8403,1663.8369 L1166.6646,1663.3269 L1166.4384,1662.812 L1166.2654,1662.4794 L1166.0769,1662.1619 L1165.8732,1661.8591 L1165.6538,1661.5713 L1165.4193,1661.2983 L1165.1693,1661.0405 L1164.9038,1660.7974 L1164.6229,1660.5692 L1164.3318,1660.3605 L1164.0352,1660.1754 L1163.733,1660.014 L1163.4258,1659.8766 L1163.1129,1659.7628 L1162.7947,1659.6726 L1162.4712,1659.6064 L1162.1421,1659.564 L1161.8108,1659.545 L1161.4803,1659.5497 L1161.1508,1659.5781 L1160.8218,1659.63 L1160.4938,1659.7056 L1160.1665,1659.8047 L1159.8401,1659.9274 L1159.5144,1660.0737 L1158.9854,1660.3625 L1158.5065,1660.6898 L1158.078,1661.0557 L1157.6997,1661.46 L1157.372,1661.903 L1157.0945,1662.3845 L1156.8674,1662.9044 L1156.6906,1663.4631 L1156.6243,1663.7576 L1156.5769,1664.0634 L1156.5391,1664.7084 L1156.577,1665.3982 L1156.6909,1666.1328 L1156.8806,1666.9122 L1157.1461,1667.7365 L1157.4875,1668.6055 L1157.9048,1669.5193 L1158.4205,1670.5189 L1158.9501,1671.4236 L1159.4932,1672.2334 L1160.0499,1672.9481 L1160.6202,1673.5679 L1161.2041,1674.0928 L1161.5012,1674.3196 L1161.8018,1674.5227 L1162.1056,1674.7019 L1162.413,1674.8575 L1162.9536,1675.0743 L1163.4987,1675.2253 L1164.0476,1675.3102 L1164.6007,1675.3291 L1165.1581,1675.2821 L1165.7194,1675.1692 L1166.2848,1674.9902 L1166.8544,1674.7454 L1167.2637,1674.5278 L1167.6393,1674.2898 L1167.9811,1674.0312 L1168.2891,1673.7523 L1168.5634,1673.4528 L1168.8038,1673.1327 L1169.0105,1672.7921 L1169.1836,1672.4312 L1169.3204,1672.0549 L1169.4188,1671.6694 L1169.4792,1671.274 L1169.5011,1670.8695 L1169.4846,1670.4552 L1169.4298,1670.0314 L1169.3367,1669.598 L1169.2052,1669.1552 z" stroke="#000000" stroke-width="0.24" stroke-linecap="round" stroke-linejoin="round" fill="none" />
  <path d="M988.7094,1665.0701 L988.6807,1664.6923 L988.6767,1664.3325 L988.6976,1663.991 L988.74316,1663.6676 L988.8136,1663.3624 L988.9086,1663.0753 L989.0285,1662.8065 L989.1731,1662.5558 L989.3386,1662.3246 L989.5208,1662.1139 L989.7198,1661.924 L989.93555,1661.7546 L990.168,1661.6058 L990.4173,1661.4777 L990.68335,1661.3702 L990.9662,1661.2834 L991.3144,1661.2097 L991.6577,1661.1724 L991.99615,1661.1718 L992.3299,1661.2076 L992.6589,1661.2803 L992.9829,1661.3892 L993.30225,1661.5349 L993.61676,1661.7172 L993.9165,1661.9324 L994.1916,1662.1772 L994.442,1662.4515 L994.6678,1662.7554 L994.8689,1663.0887 L995.0453,1663.4518 L995.197,1663.8442 L995.32404,1664.2664 L995.41583,1664.6744 L995.4724,1665.0684 L995.4943,1665.448 L995.4812,1665.8134 L995.43317,1666.1646 L995.35034,1666.5015 L995.23254,1666.824 L995.0797,1667.1323 L994.89655,1667.421 L994.6875,1667.6844 L994.4525,1667.9224 L994.19165,1668.1354 L993.9048,1668.3229 L993.59204,1668.4852 L993.2535,1668.6223 L992.8889,1668.734 L992.42426,1668.8276 L991.9684,1668.862 L991.52167,1668.837 L991.0836,1668.7529 L990.6662,1668.6179 L990.2809,1668.4407 L989.9278,1668.2211 L989.6068,1667.9591 L987.84644,1668.6753 L991.5115,1676.3945 L999.37427,1674.3289 L998.8869,1672.4738 L992.57733,1674.1312 L990.6089,1670.1056 L991.0281,1670.244 L991.44354,1670.3505 L991.8552,1670.4246 L992.2631,1670.4666 L992.6673,1670.4764 L993.0676,1670.4541 L993.4643,1670.3997 L993.85724,1670.313 L994.3589,1670.1572 L994.8286,1669.9619 L995.2663,1669.727 L995.672,1669.4529 L996.0457,1669.139 L996.38745,1668.7858 L996.69714,1668.3928 L996.97485,1667.9604 L997.211,1667.5013 L997.3958,1667.0284 L997.52954,1666.5414 L997.61194,1666.0405 L997.6432,1665.5258 L997.62317,1664.997 L997.552,1664.4543 L997.42957,1663.8977 L997.2715,1663.3755 L997.0789,1662.8815 L996.8522,1662.4161 L996.5912,1661.9791 L996.2958,1661.5708 L995.966,1661.1907 L995.60205,1660.8391 L995.20374,1660.5161 L994.688,1660.1705 L994.15326,1659.8943 L993.59955,1659.687 L993.027,1659.5488 L992.4353,1659.4796 L991.8248,1659.4797 L991.1953,1659.549 L990.54694,1659.6871 L990.02484,1659.8445 L989.5377,1660.033 L989.08514,1660.2527 L988.66724,1660.5038 L988.284,1660.786 L987.9356,1661.0995 L987.6217,1661.4443 L987.34265,1661.8203 L987.1024,1662.2194 L986.9052,1662.6335 L986.7511,1663.0626 L986.6399,1663.5067 L986.5718,1663.9658 L986.5467,1664.44 L986.56476,1664.929 L986.62573,1665.4331 z" stroke="#000000" stroke-width="0.24" stroke-linecap="round" stroke-linejoin="round" fill="none" />
  <path d="M826.9885,1675.4175 L825.92316,1664.8408 L828.1275,1664.6188 L827.94244,1662.7817 L825.7381,1663.0038 L825.3444,1659.096 L823.3404,1659.2979 L823.7341,1663.2056 L816.65326,1663.919 L816.8383,1665.756 L825.3519,1675.5824" stroke="#000000" stroke-width="0.24" stroke-linecap="round" stroke-linejoin="round" fill="none" />
  <path d="M824.6604,1672.4019 L818.8089,1665.5575 L823.9191,1665.0426" stroke="#000000" stroke-width="0.24" stroke-linecap="round" stroke-linejoin="round" fill="none" />
  <path d="M1849.0103,1675.52 L1848.4059,1676.0355" stroke="#000000" stroke-width="0.24" stroke-linecap="round" stroke-linejoin="round" fill="none" />
  <path d="M1703.0739,1707.1862 L1716.0308,1703.7908 L1728.7673,1699.9679 L1726.4346,1691.4594 L1725.033,1686.6096 L1720.722,1672.797 L1725.6003,1666.0358 L1728.54,1661.721 L1732.1422,1656.1462 L1735.5907,1650.4752 L1726.364,1644.997 L1716.8599,1639.5815 L1711.9242,1637.2905 L1708.867,1624.5132 L1705.4536,1611.9939 L1696.945,1614.3267 L1692.0952,1615.7284 L1678.2825,1620.0393 L1671.5214,1615.161 L1667.2065,1612.2212 L1661.632,1608.6191 L1655.9607,1605.1707 L1650.4825,1614.3973 L1645.0671,1623.9014 L1642.7761,1628.8373 L1629.9988,1631.8944 L1617.4795,1635.3077 L1619.8123,1643.8164 L1621.2141,1648.666 L1625.5248,1662.4788 L1620.6465,1669.24 L1617.7069,1673.5547 L1614.1047,1679.1294 L1610.6562,1684.8004 L1619.8828,1690.2788 L1629.387,1695.6941 L1634.3226,1697.9852 L1637.38,1710.7626 L1640.7935,1723.2819 L1649.302,1720.9492 L1654.1517,1719.5472 L1667.9644,1715.2366 L1674.7255,1720.1147 L1679.0404,1723.0546 L1684.615,1726.6567 L1690.2861,1730.1051 L1695.3009,1720.6324 L1700.3262,1710.9213 z" stroke="#000000" stroke-width="0.24" stroke-linecap="round" stroke-linejoin="round" fill="none" />
  <path d="M656.09985,1664.3735 L656.50354,1664.4683 L656.8778,1664.5778 L657.2228,1664.702 L657.5384,1664.8408 L657.8247,1664.9945 L658.08167,1665.1627 L658.30914,1665.3458 L658.50745,1665.5435 L658.67944,1665.7542 L658.8282,1665.9756 L658.9538,1666.2083 L659.0563,1666.4517 L659.13556,1666.7062 L659.1918,1666.9717 L659.2247,1667.2482 L659.23456,1667.5355 L659.21735,1667.8763 L659.17017,1668.2035 L659.093,1668.517 L658.9858,1668.8167 L658.8485,1669.1027 L658.6812,1669.375 L658.48395,1669.6335 L658.25653,1669.8785 L658.0071,1670.1017 L657.7434,1670.2947 L657.46564,1670.4576 L657.1736,1670.5907 L656.8674,1670.6936 L656.5469,1670.7665 L656.2124,1670.8093 L655.8636,1670.8223 L655.53156,1670.8063 L655.2147,1670.7628 L654.9129,1670.6917 L654.62616,1670.5929 L654.35443,1670.4666 L654.0977,1670.3125 L653.85614,1670.1309 L653.6296,1669.9216 L653.4243,1669.691 L653.24677,1669.4457 L653.0969,1669.1853 L652.97455,1668.91 L652.87994,1668.62 L652.81287,1668.3151 L652.7735,1667.9952 L652.7618,1667.6604 L652.7773,1667.3641 L652.8203,1667.0339 L652.891,1666.6694 L652.98926,1666.271 L651.25775,1666.4796 L651.27765,1666.7974 L651.26556,1667.108 L651.2329,1667.4109 L651.1798,1667.7057 L651.1062,1667.9927 L651.0121,1668.2714 L650.89746,1668.5422 L650.76245,1668.8052 L650.6069,1669.0599 L650.4301,1669.295 L650.2312,1669.4985 L650.0103,1669.6703 L649.76733,1669.8105 L649.50226,1669.9191 L649.2152,1669.9961 L648.90607,1670.0414 L648.57495,1670.0552 L648.3098,1670.042 L648.0564,1670.0061 L647.8148,1669.9473 L647.585,1669.8656 L647.36694,1669.7612 L647.1607,1669.6338 L646.96625,1669.4836 L646.7835,1669.3105 L646.61786,1669.1194 L646.4745,1668.9152 L646.35345,1668.6976 L646.25476,1668.4669 L646.17847,1668.2229 L646.1243,1667.9658 L646.09265,1667.6953 L646.08325,1667.4117 L646.09625,1667.1304 L646.1317,1666.8611 L646.1898,1666.604 L646.2703,1666.3589 L646.3734,1666.126 L646.49896,1665.9052 L646.64703,1665.6964 L646.8176,1665.4998 L647.0107,1665.3179 L647.22626,1665.1533 L647.46436,1665.0059 L647.72485,1664.8756 L648.00793,1664.7627 L648.3134,1664.6671 L648.64136,1664.5886 L648.9918,1664.5275 L648.6534,1662.5543 L648.1712,1662.656 L647.7167,1662.7867 L647.29,1662.9464 L646.89087,1663.1349 L646.51953,1663.3523 L646.1759,1663.5986 L645.86,1663.8739 L645.57184,1664.1782 L645.3144,1664.5066 L645.091,1664.855 L644.9014,1665.2228 L644.74585,1665.6105 L644.62427,1666.0178 L644.53644,1666.4448 L644.4827,1666.8916 L644.4629,1667.3582 L644.49414,1668.0023 L644.5962,1668.621 L644.7688,1669.2141 L645.0121,1669.7816 L645.3166,1670.304 L645.4882,1670.5409 L645.6728,1670.7616 L645.87024,1670.9662 L646.0806,1671.1545 L646.304,1671.3267 L646.5403,1671.4828 L647.0336,1671.7422 L647.54236,1671.9282 L648.06665,1672.0414 L648.6064,1672.0812 L649.1152,1672.0494 L649.601,1671.9478 L650.064,1671.7759 L650.5042,1671.5343 L650.7132,1671.3876 L650.9114,1671.224 L651.27496,1670.8463 L651.5953,1670.4012 L651.8722,1669.889 L651.9632,1670.2356 L652.0765,1670.5623 L652.2119,1670.8695 L652.36957,1671.1569 L652.5494,1671.4246 L652.7514,1671.6725 L652.9756,1671.9008 L653.22205,1672.1093 L653.4878,1672.2958 L653.76984,1672.4575 L654.06836,1672.595 L654.3833,1672.7076 L654.7146,1672.7959 L655.0624,1672.8596 L655.42645,1672.8988 L655.807,1672.9135 L656.32275,1672.8927 L656.81885,1672.8237 L657.29517,1672.7069 L657.7517,1672.542 L658.1886,1672.329 L658.60565,1672.068 L659.0031,1671.7592 L659.38074,1671.4021 L659.72577,1671.0082 L660.02527,1670.5887 L660.27924,1670.1437 L660.4877,1669.6731 L660.65063,1669.1768 L660.768,1668.6549 L660.83984,1668.1075 L660.8662,1667.5345 L660.8496,1667.0172 L660.7936,1666.5221 L660.69806,1666.0492 L660.5632,1665.5985 L660.3887,1665.1699 L660.1747,1664.7635 L659.92114,1664.3793 L659.62823,1664.0172 L659.3037,1663.6849 L658.9558,1663.39 L658.58435,1663.1323 L658.1894,1662.9121 L657.771,1662.729 L657.329,1662.5834 L656.8636,1662.4751 L656.37463,1662.404 z" stroke="#000000" stroke-width="0.24" stroke-linecap="round" stroke-linejoin="round" fill="none" />
  <path d="M474.55762,1672.6293 L474.91098,1672.6061 L475.2592,1672.5479 L475.60217,1672.4543 L476.16306,1672.2455 L476.7229,1671.9742 L477.28174,1671.6411 L477.83954,1671.2458 L478.42032,1670.7701 L479.04788,1670.1958 L479.72235,1669.5225 L480.4437,1668.7506 L481.5399,1667.5809 L482.51172,1666.6213 L483.35925,1665.8715 L483.73633,1665.5752 L484.08234,1665.3314 L484.40988,1665.1284 L484.73166,1664.9545 L485.04752,1664.8093 L485.35757,1664.6934 L485.6618,1664.6062 L485.9602,1664.5482 L486.25275,1664.5192 L486.53946,1664.5192 L486.8307,1664.5474 L487.1089,1664.6014 L487.3741,1664.6816 L487.62634,1664.7878 L487.8655,1664.92 L488.09167,1665.0782 L488.3049,1665.2625 L488.50507,1665.4728 L488.68555,1665.7035 L488.83966,1665.949 L488.96738,1666.2095 L489.0687,1666.4847 L489.14365,1666.7749 L489.1922,1667.0801 L489.21436,1667.4 L489.21014,1667.7349 L489.17865,1668.0867 L489.12094,1668.4193 L489.037,1668.7323 L488.92688,1669.0259 L488.79053,1669.2999 L488.628,1669.5546 L488.43924,1669.7898 L488.22427,1670.0055 L487.98645,1670.1976 L487.7291,1670.3619 L487.45227,1670.4982 L487.15594,1670.6068 L486.84006,1670.6875 L486.50473,1670.7404 L486.14987,1670.7654 L485.7755,1670.7625 L485.88223,1672.8323 L486.4447,1672.7896 L486.9747,1672.7086 L487.4724,1672.5894 L487.93762,1672.4319 L488.37048,1672.2362 L488.77094,1672.0022 L489.13898,1671.7299 L489.47464,1671.4193 L489.77594,1671.074 L490.04105,1670.697 L490.26993,1670.2887 L490.46252,1669.8489 L490.61896,1669.3776 L490.7391,1668.8746 L490.82306,1668.3405 L490.87076,1667.7747 L490.8795,1667.2018 L490.84598,1666.6575 L490.77023,1666.1417 L490.6522,1665.6545 L490.49194,1665.1958 L490.28943,1664.7657 L490.0447,1664.3641 L489.7577,1663.991 L489.43872,1663.6532 L489.0981,1663.357 L488.73584,1663.1028 L488.3519,1662.8901 L487.94638,1662.7194 L487.5191,1662.5903 L487.07022,1662.5033 L486.5997,1662.4579 L486.11084,1662.4581 L485.62354,1662.5085 L485.13794,1662.6095 L484.65387,1662.7605 L484.16272,1662.9696 L483.65573,1663.244 L483.1328,1663.5839 L482.59402,1663.9893 L481.9947,1664.5017 L481.29013,1665.1628 L480.48038,1665.9729 L479.56543,1666.9316 L478.21994,1668.3473 L477.74216,1668.8223 L477.39426,1669.1422 L476.82928,1669.582 L476.26602,1669.9327 L476.67316,1661.9307 L474.7477,1661.8326 L474.19904,1672.6173 z" stroke="#000000" stroke-width="0.24" stroke-linecap="round" stroke-linejoin="round" fill="none" />
  <path d="M304.4955,1668.985 L304.76755,1668.855 L304.43564,1670.2762 L320.8221,1671.0364 L320.91504,1669.0326 L308.1465,1668.4403 L308.50967,1668.0663" stroke="#000000" stroke-width="0.24" stroke-linecap="round" stroke-linejoin="round" fill="none" />
  <path d="M310.74805,1664.5447 L310.53156,1665.0183" stroke="#000000" stroke-width="0.24" stroke-linecap="round" stroke-linejoin="round" fill="none" />
  <path d="M310.74805,1664.5447 L308.8111,1664.455 L308.35727,1665.2496" stroke="#000000" stroke-width="0.24" stroke-linecap="round" stroke-linejoin="round" fill="none" />
  <path d="M304.76755,1668.855 L305.04276,1668.702 L305.60257,1668.3279 L306.175,1667.8622 L306.76,1667.3049 L307.33173,1666.6747 L307.86414,1665.9895 L308.35727,1665.2496" stroke="#000000" stroke-width="0.24" stroke-linecap="round" stroke-linejoin="round" fill="none" />
  <path d="M310.53156,1665.0183 L310.27054,1665.5198 L309.96497,1666.0491 L309.6149,1666.6063 L309.2439,1667.1493 L308.8755,1667.636 L308.50967,1668.0663" stroke="#000000" stroke-width="0.24" stroke-linecap="round" stroke-linejoin="round" fill="none" />
  <path d="M304.4955,1668.985 L305.04276,1668.702" stroke="#000000" stroke-width="0.24" stroke-linecap="round" stroke-linejoin="round" fill="none" />
  <path d="M1887.6606,1700.2252 L1900.4243,1692.4966 L1913.0194,1684.6158 L1911.6683,1682.4376 L1904.8921,1671.6652 L1896.426,1658.5728 L1900.7418,1644.2189 L1901.0905,1642.9966 L1904.6437,1629.8639 L1892.9236,1626.9891 L1881.0769,1624.1641 L1875.3302,1623.0756 L1867.8052,1610.3578 L1860.1803,1597.8207 L1858.002,1599.1718 L1847.2296,1605.948 L1834.137,1614.4142 L1819.7833,1610.0983 L1818.561,1609.7495 L1805.4282,1606.1964 L1802.5535,1617.9165 L1799.7284,1629.7632 L1798.6399,1635.5099 L1785.9222,1643.0348 L1773.3851,1650.6598 L1774.7361,1652.838 L1781.5122,1663.6105 L1789.9784,1676.703 L1785.6626,1691.0568 L1785.314,1692.279 L1781.7609,1705.4117 L1793.4808,1708.2866 L1805.3276,1711.1118 L1811.0742,1712.2002 L1818.5991,1724.9178 L1826.2241,1737.4551 L1828.4025,1736.104 L1839.1748,1729.3278 L1852.2673,1720.8617 L1866.6211,1725.1775 L1867.8434,1725.5261 L1880.9761,1729.0795 L1883.5641,1717.2943 L1886.1548,1705.3948 z" stroke="#000000" stroke-width="0.24" stroke-linecap="round" stroke-linejoin="round" fill="none" />
</svg>